<mxfile host="Electron" agent="Mozilla/5.0 (Windows NT 10.0; Win64; x64) AppleWebKit/537.36 (KHTML, like Gecko) draw.io/26.2.2 Chrome/134.0.6998.178 Electron/35.1.2 Safari/537.36" version="26.2.2">
  <diagram name="PÃ¡gina-1" id="ldMUzIw6IBN1RRv_bbpt">
    <mxGraphModel dx="564" dy="666" grid="1" gridSize="10" guides="1" tooltips="1" connect="1" arrows="1" fold="1" page="1" pageScale="1" pageWidth="827" pageHeight="1169" math="0" shadow="0">
      <root>
        <mxCell id="0" />
        <mxCell id="1" parent="0" />
        <mxCell id="2ZRhY3xHpT4bSsx1_LrB-32" value="" style="rounded=0;whiteSpace=wrap;html=1;" vertex="1" parent="1">
          <mxGeometry x="640" y="40" width="540" height="580" as="geometry" />
        </mxCell>
        <mxCell id="2ZRhY3xHpT4bSsx1_LrB-31" value="" style="rounded=0;whiteSpace=wrap;html=1;" vertex="1" parent="1">
          <mxGeometry x="40" y="40" width="540" height="580" as="geometry" />
        </mxCell>
        <mxCell id="2ZRhY3xHpT4bSsx1_LrB-2" value="Angular" style="shape=ext;double=1;rounded=1;whiteSpace=wrap;html=1;" vertex="1" parent="1">
          <mxGeometry x="80" y="100" width="120" height="80" as="geometry" />
        </mxCell>
        <mxCell id="2ZRhY3xHpT4bSsx1_LrB-3" value="Spring Boot" style="shape=ext;double=1;rounded=1;whiteSpace=wrap;html=1;" vertex="1" parent="1">
          <mxGeometry x="320" y="100" width="120" height="80" as="geometry" />
        </mxCell>
        <mxCell id="2ZRhY3xHpT4bSsx1_LrB-4" value="Autho" style="shape=ext;double=1;rounded=1;whiteSpace=wrap;html=1;" vertex="1" parent="1">
          <mxGeometry x="190" y="260" width="120" height="80" as="geometry" />
        </mxCell>
        <mxCell id="2ZRhY3xHpT4bSsx1_LrB-6" value="" style="endArrow=classic;html=1;rounded=0;exitX=0.5;exitY=1;exitDx=0;exitDy=0;entryX=0;entryY=0;entryDx=0;entryDy=0;" edge="1" parent="1" source="2ZRhY3xHpT4bSsx1_LrB-2" target="2ZRhY3xHpT4bSsx1_LrB-4">
          <mxGeometry width="50" height="50" relative="1" as="geometry">
            <mxPoint x="370" y="370" as="sourcePoint" />
            <mxPoint x="420" y="320" as="targetPoint" />
          </mxGeometry>
        </mxCell>
        <mxCell id="2ZRhY3xHpT4bSsx1_LrB-7" value="" style="endArrow=classic;html=1;rounded=0;exitX=1;exitY=0.5;exitDx=0;exitDy=0;entryX=0;entryY=0.5;entryDx=0;entryDy=0;" edge="1" parent="1" source="2ZRhY3xHpT4bSsx1_LrB-2" target="2ZRhY3xHpT4bSsx1_LrB-3">
          <mxGeometry width="50" height="50" relative="1" as="geometry">
            <mxPoint x="230" y="130" as="sourcePoint" />
            <mxPoint x="300" y="200" as="targetPoint" />
          </mxGeometry>
        </mxCell>
        <mxCell id="2ZRhY3xHpT4bSsx1_LrB-8" value="" style="endArrow=classic;html=1;rounded=0;exitX=0.5;exitY=1;exitDx=0;exitDy=0;entryX=1;entryY=0;entryDx=0;entryDy=0;" edge="1" parent="1" source="2ZRhY3xHpT4bSsx1_LrB-3" target="2ZRhY3xHpT4bSsx1_LrB-4">
          <mxGeometry width="50" height="50" relative="1" as="geometry">
            <mxPoint x="160" y="200" as="sourcePoint" />
            <mxPoint x="230" y="270" as="targetPoint" />
          </mxGeometry>
        </mxCell>
        <mxCell id="2ZRhY3xHpT4bSsx1_LrB-11" value="" style="shape=image;verticalLabelPosition=bottom;labelBackgroundColor=default;verticalAlign=top;aspect=fixed;imageAspect=0;image=data:image/png,iVBORw0KGgoAAAANSUhEUgAAAMgAAADICAYAAACtWK6eAAAABHNCSVQICAgIfAhkiAAAAAlwSFlzAAALEwAACxMBAJqcGAAADW1JREFUeJzt3WuMnUUdx/EvLUtbsC13hBbB5VZAQMotqLAoIioGA2ojChqj3DQaNVGjQUAEE8SEBN8YNVFDDCAkRKgaSSFeEBGkgJrKpQgFK0i51tKydHePL/7P6dLN7pl5nmeeZ2bO+X2SSV902zP7nzPnPJd55gciIiIiIiIiIiIiIiIiIiIiIiIiIjJQZsfugEzaJnYH+sw2wJ7AYmARsBewB7Bb0XYEFgILgO2BecBcYAibGK+fHBPAZuBVYBOwEXgZWA+8CDwHrAP+C/wHWAv8u2gTzf2Kg0UTpJoFwGHAocAS4CBgP2BfYE68bgHwGvAksBp4GHgIWAU8iE0wKUETxO0NwLHAMUVbik2EHGv3BLASuBe4p2gbYnYodTkOctN2AEaAk4ETgbcC20btUXPGgAeA3wO3F39ujNojSdL+wJeBO4BRoDOgbRSbKF/CDhllgB0IXAz8jfhvzFTbg8BFwAEVayyZWQBcCNxN/Ddfbu3PwPlFDaXPHA78GDshjf1Gy71tAH5U1LTv9ftJ+inA17AT7raMAmuYvCfxNPBs0Z4HXsIut27A7m9swi7NjjN5/2IWdk9kO+xeyTxgPnYPZSGwC7B70fbC7rksBvah3cvMK4Ariz/7Ur9OkPcClwLHNfga67Bj9H9g9xoeAh7Dbth1GnzdXmZhE2Z/7P7MEuAtwBHArg2+7t3AJcBtDb6GBHAUdiWqicOKFcDlwOnYmzA3i4APAldgV6peIXydVgBHtvULib9dgB9ihykhBvpV7E30dewmYT/eBxnCvmG/QdjL2+PAD4Cd2/tVpJdl2HqkugP7PPAT4Azs7vmgmQ98CPgp8AL16/kMcGabv4BsbQHwc+ofOl0LnEp/fktUNQS8D6tv3UOxa7HJJy06HDshrjpo9wHnMZjfFGXNx+5/rKR6vR/FLhZIC86g2v2MCeBm4B3td7lvnIDVcILy9f8fdpFAGnQB5U/EJ4DrsKXpEsahwPWUnyhjwGci9HcgfJ7yn1q3o8uOTVpKtcvqn43R2X72Scp9Wq0FPhylp4NpGfZUY5lv9XOi9LQPjWBLMXyL/zPs0VZp107YFSvfcRpF54O17YH/PY4NwMfidFNe5xz8Lw0/gz2rLxUtx6/QaxiQ1aWZOBJbqOkzdr+M1MfsnYlfgf+JrTOStLwJ2zTCZwxPj9THbM3GduVwFXY1ts2OpGkR8C/c4/gI2g+slLNxF/VF7LFZSdsS7BkY13ieFauDOfoT7oJqIVw+luEezz9E611mhnEX86ZovZOqbqb3mE5g+42Jw4X0LuQY9sSc5OVAbOx6je150Xo3g1mxOzAN182j5djJueTlEeA3jp85oY2OlJHiBDnE8fc3ttILaYJr7FxjL9iu5b2+hrXjX74OoPfYrovXtXy41l3F3j1dqptL77Edjde16aV4iDUUuwMSzXaxOzBVihPEZXHsDkhle8fuQFk5TpDjY3dAKntb7A70A9dNwlvidU1q+hXu8RUHVwHHscgzycsh+O0nIA6uAnbQMwQ58vn20ATx4FPEDnp6MCefwH9cxcG3kOvRZmQ5OIJy+5iJg28hO1jc8T5xuike3gw8RbkxFYcyxewAj6PVvSk6CNsroOx4ikPZgnawnU/eHqOzMq0TsXVVVcZSHKoUtYOt4fpChP7K1r5IuX3MNEFKqlrYbltOnglQuVsE/Jr64ycOdQvcwTZ0uJA8l9LkZjbwOfw2ZtAECSBEkbttJfDudrs/UN4DPEDYMRMHn3ONskVfgZ04Shgj2M75ZcfBJwdRHFwFfCeWJ1jl0+lObLsgHXqVNxvLMLyTarV/DjjJ4+fEwaeAw8D9Hj87U1sDXIR2ZfSxCPgm1e5pdNt9TG7powlSk28B5wDXUC0OrNvGgN9iOzkuaPbXyspCbP3UbdSL1p4Armbrx6Q1QWoqW8CT8dv/1dVexVYJfxp4YyO/Wdr2BM4FbiVMZvpj2CHVVJogNVUp4PbAd7A3ed2B7X7yrQSuBE6hP9Nw52Px11dhV6LqfBNP/aD5NjBvhtfVBKmpTgGHgV94/B9l22bgXuyQ7uPY9jXbBPhd2zIL29nwbOD7wF9x73JY5UPletzbh2Y1QVIcZFeRfPp8NPAt4P31uzOjV4C/F+0hLKdkNfAENqFi2A57g+4HHFy0w7DHAnZo8HWXA5dg37ouIca3NUl1phCygEuBr2CBnttW7lE541i6UretxRbuPYtd6nwZu+u8HthUtNHi340X/8fsos3BDh/nYYdEO2In0LsCu2PxZYuntLYuYY9hOyV+D7+J0ZXVBElRE1/BewNXYJl4oQ+/Bq09DVxO9e2XsjrESlGTBRzCbnbdgh0GxX6z5dJew67wnUn9jf00QWpqq4C7ARcAdxD+hLUf2hi2ROd87JAuFE2QmmIUcFfsxtiN2Erg2G/OWO0F4AbsatcutSo6s6wmSIonRK4iNd3n2cAx2CrgEWwnxyavAMW0AbgLiz9bgV3Knmj4NWOPbylJdaaQWgG3xXbmOA44FrsydjDtXRULZTN2KXolcA/wF+BBJq+ctSW18e0pqc4UcijgHGynwEOwybIEu/cwTPw1XS9jS28eY/L+zKqivRaxX105jO8WSXWmkFUBp7Ezdll5MbYStnu/YjdgJ+w+xkLssG1e0YawQ7vut9IY9sm+mcl7Ja8weQ/lJezeyjpsw4q12D2Xp7BzqJRlNb5JdaaQVQGltKzGVw8OifSgCSLSgyaISA85ThCFeOZrbuwOlJXjBFFGYb6UUdgCZRTmSxmFAbjW6iijMF/KKAzAVUBlFOZJGYWB+Kw6VUZhfpRRGIjv0mxlFOZDGYUB+RZSGYV5UEZhYGUe8FFGYdqUUdiAMsXsoIzCVCmjsCFlC9pBGYWpUUZhg6oUtYMyClOhjMKGVS1stymjMA5lFLakboE7KKOwTcoobFmIInebMgqbpYzCCFwF3OTxM1ObMgrDGqFaRuFGj58RB1cBj8euWlX5dFJGYXV1MwqfxrZO0gSpyaeAewN3e/zsTE0Zhf5CZBTeVfw/ePysOPgWcAj4LvUy9JRROL1QGYXjWPLX6zfZ0wSpqWwBTwQe9fh3rqaMwrAZhQ8z/c1bTZCaqhRwLnAZyigso6mMwk1Y2tRMewdogtRUp4DD2O7koQa725RR6Pehch3uxaNZTZAUB9lVJJ8+L8W+UU6r350ZKaNw0nLgYuB+j58NMb6tSaozhZAFVEZhc5RRGEkTX8HKKAzXlFEYWZMFVEZhtaaMwoS0VUBlFPZuyihMVIwCKqPQmjIKp0jxhMhVJGUUhqOMQoekOlNIrYDKKAwrtfHtKanOFHIooDIKq8thfLdIqjOFrAo4DWUU9pbV+CbVmUJWBZTSshpfPTgk0oMmiEgPmiAiPeQ4QZRRmC9lFLZAGYX5UkZhC5RRmC9lFAbgWqujjMJ8KaMwAFcBlVGYJ2UUBuKz6lQZhflRRmEgvkuzlVGYD2UUBuRbSGUU5kEZhYGVecBHGYVpU0ZhA8oUs4MyClOljMKGlC1oB2UUpkYZhQ2qUtQOyihMhTIKG1a1sN2mjMI4lFHYkroF7qCMwjYpo7BlIYrcbcoobJYyCiNwFVAZhfGNoIzCaFwFVEZhHMooTIRPAZVR2B5lFCbGt4DKKGyOMgoTVraAyigMQxmFmahSQGUUlqeMwkzVKaAyCqenjMKKUhxkV5GUUTgzZRQGllRnCiELqIzC5iijMJImvoKVURiuKaMwsiYLqIzCak0ZhQlpq4DKKOzdlFGYqBgFVEahNWUUTpHiCZGrSMooDEcZhQ5JdaaQWgGVURhWauPbU1KdKeRQQGUUVpfD+G6RVGcKWRVwGsoo7C2r8U2qM4WsCiilZTW+enBIpAdNEJEeNEFEekhxgrhWwiqjMF+ujMIUrrJtJcUJst7x98oozJcro9A19q1LcYI85fh7ZRTmy5VRuKaVXpSQ4gRZ5fj7Za30QprgGjvX2Au2wrbXYjZlFObJJ6Pw3Gi9y8i+uFd8KqMwP66MwgkyzFGP5Y+4J4kyCvPhk1H4u1idy9FHcRdUGYV58M0o1LllCbOwlaiuoiqjMG2+GYWrSPOCUdJOw+8puMdRRmGKymQUnhqpj9m7Cb8CK6MwLWUyCm+I1Me+sDP2nINPoZVRmIYyGYVPYnt9SQ3HUS40RxmFcZTNKNwIHB2lp33oI5Tbhl8Zhe2pklE4hu1PJgF9ivKbUiujsFlVMgrHgXNidHYQnEW1DG5lFIY1QrWMwlHsaEAadDLwPOUHp4MyCuuom1H4HHBS250eVMPUix9WRqG/EBmFK7E1dtKiOVigTZ2wHGUUTi9URuEEcDWWWyKRvAvbJK3qIHabMgrDZhSuxs5VJAHbY5kVyij012RG4WXYhniSmP1QRuF02swoHG7pd2pFToNcxlHApcAHGnwNZRROuhWrd5kotiz06wTpOhL4KsoobEI3o/Aq/MI7JWHKKAzX6mYUSsKUUVithcwolEwoo7B3ayqjUDKkjEJrbWQUZqXfT9KrUEahbKEJ4qaMwgGmCVKNMgoHhCZIeMooFBEREREREREREREREREREREREREREant/7IKC+5bUhJjAAAAAElFTkSuQmCC;fillColor=#67AB9F;strokeColor=#67AB9F;" vertex="1" parent="1">
          <mxGeometry x="490" y="60" width="80" height="80" as="geometry" />
        </mxCell>
        <mxCell id="2ZRhY3xHpT4bSsx1_LrB-13" value="" style="shape=image;verticalLabelPosition=bottom;labelBackgroundColor=default;verticalAlign=top;aspect=fixed;imageAspect=0;image=data:image/png,iVBORw0KGgoAAAANSUhEUgAAAlgAAAH0CAMAAADWjqPmAAAABGdBTUEAALGPC/xhBQAAAwBQTFRFTGlxABBuAC5tAC5vAC1uACJsADBvAjBwATBwAC1wAC9vAC9vADBvAC9vADBvATBvAC9vADBvACxvAC9vAS9vAC9vADBvADBvAC5uADBvAC9vADBvADBvAC9vAjBvADBvADBvAC1vADBvAC9vAC5vAjBvADBvAC5vADBwAC9vADBvADBuADBvACxvADBvAjBvAjBvAC5uAjBvADBwADBvADBvADBvADBvAjBvADBuAC9vACxvADFvAjBvAC9vADBvADBwAi5uAjBw/////5kAADBwADBuAjBuBTRy+/v9DDRqAzJw3+XtCDZzCDNsMFaLEDx4Cjh0DDl25+vxGUR99ff57/P39/n7kKbBFkF7O1+RKFCH/f3/XXukIUuDVHSfJU6Fl6vFvsrbDjt24IwNBjJs9pUDqrrQ8/X56I8KRmiXgZm5+fn7FEB6x9HfEDZo2+Lr8fP3/f3985MFztfjBDJu/ZcAHEZ+OF6PQWSVaYWruMXXNVqO09vn+fv9Q0tRGzpjZllDLkJb6+/0ssHU+5cCWXiiLVSJ5OnwxNDe6e3zusjZytThKD9df5e3lKjDH0mBhp27Ej554efvdpCy7fH1U1FLZYKpTW+bws3dUHCd04YTjaO/fJW15I4L1ogReZO0KlKH65EIbFtA1d3nSE5Qy4MW3IsPSWuZTU9OXlZGnK/IpHMn3ePsk2wve2I5iJ+8n7HJNkZXEzhmPklUrr3R+ZcCIT5htcPV4+fviGczgmQ3n3EqcIuvrnYjo7XLYH2njmowJD5gWVRIc42xmqzGGDpkobPLmm8sHjxi95UE7pEHg5u5YoCnz4UU75MGtnkfbomt19/pz9nl9/f7pbbNwn4bunwebIitV3ah/ZkA7/H1FjhmxYEZsngidV885evxr7/Tvn0cO0hVqHQmJEyD2YkQKFCFLFKJPmKT0dnlnXAqp7jNcl4+TGyby9Xj2d/pOFyPRGaVx4EYq3Yki6G9cF0+M0RZQGKTYlhEo7PLUnKdeGA6oXIpx4MYTnCdiatpJwAAAEJ0Uk5TAAMKShMH+ZGBDltU2nbtnETzGmaNfOXAK/U9zd5hocTqHvA4J6e7MtJPrNawIciUmC+G/eJr/LaItG8XJIo1ckCRp6hlnwAAIABJREFUeJztnQdYVEfb91HRiIq9BLuosaWoiUksiT5rAGFpUiJ4XYBYwUJTQQE1olEjgiIioGJXsAe7EhMFY4ntsetriQ2JLVZifGKu79u+M+fMnLJ72uL8rvdNnrBnz5k5898p99z3PXZ2BAKBQCAQCAQCgUAgEAgEAoFAIBAIBAKBQCAQCAQCgUAgEAgEAoFAIBAIBAKBQCAQCAQCgUAgEAgEAoFAIBAIBAKBQCAQCAQCgUAgEAgEAoFAIBAIBAKBQCAQCAQCgUAgvMt81K9KzRoNejg2cuzRomaVtn3kLg/B1rGv0uu9nrVUNOo1b9K1R9PKchePYIs4dPpPR7qkIGp17vG+3MUk2BRNGzZTs6jKgHPPvr3lLi3BNmjb8DNuojLSqoe93GUmKJ1ufFWl54OachecoGRqtrJEVTpad28jd+kJysS+UWOLZaWjZwe5q0BQHh91tU5VOjqTVSIBwv4TAWSlpT0xnxJMOFSvJ5CuNHQnhlOCnl6thZOVhsZkhUjQ8NHHgspKSxMyHhIaCDgKmnDqIXe1CPLS+wsRZKWlFbFqvctUqS2SrjSdVgu5K0eQje6iyUpLe7mrR5AHhw9E1ZVK1fEjuatIkIFuzUXWlUrlXEXuShIkpyZHhyvr6Ct3NQkS00gKWWn4RO6KEiSF17S99QcNHXu1qNGpX5UaPRy/bN+Kl8fWh1XlritBOv7DVRbN2/eti3AP7Vaje0+OhlV1K7J3+M5Qh5MkmjWsyejOXrchIoAHwQdSVYsgM+05qKH2J9043KlDQy771x+KXiOCEuDgevUFdweFKh+y366liLUhKIVerDrozKWzMtPnEye2OzYUqS4E5dBJYFlpse/OJi3i7VDR6cAigSb8ZaWl93ssyuokcD0IyqINcyCOFc6fHzVhvLPT1wLWgqA4mjG2fiOrjJnMk7fWJBK/AtOQqek7WutQ3I4xi8gXgtSAoESqMDW8ELt6jMIlE/iKSn1nfKvXFsbDpS6TwbSdII8gKA6GxAxd6gv0jN4Ms7iOAj2DoCyq45v8YwfBnlK1M/4x1QV7CkE5fIRv8CaCOiAwuOSQ1A4VELyHe2eBn+SIdU5tJvCTCPKDXxEKrSs7O7wZnrgqVziwoRNiuEthHb6chFokEBQC1sf9Y1EcPHviHldHjKcRZKM+rqE7CrceBKmMNcKT+XuFAjfrqSfW0NQbt9vdU6QHEuSgN67/EM+bpRvukf1EeyRBcr7CNLKYUX89MM9s3MVZ80+n1s07fvxBy6/61ugnzmBMkAAHjHdfF1Fj/rATeCrN3qtJTiCwSXC2cHF3he35ZPeu1bUFSSFiazhgYkvF3rpjda+n0PgTsmS0KTCznc9EfzDnwdBEK5KuzYbAZK8VP76BYd8bi/NXxIfZRngf3YJSGJQYPHUYaEmSLtsEGH9hKebKDhbmOO1MnE1tAGd0tyDJsx0tE5ameCTrstKpiW45aYYbB7SqOeD0FbFtKRu0q7DwTlhorMgcWJusEBUN2ogllcXI3nJhqVQfE7uWcmmLbDLpkqFxS/KGo4Fk5STwBD0W1ZDs+R2sEpbqQzLTUijIYMJ6EmactfyYaR2fNZWuqATuVEa2lpQOwi2sE5ZK5ShhYQlcQW8E95OwBA7WCovkilciSLN7Y0mLwCWXLjMkO67yQIapSptslq/3DIJWxMuUN5V79+nQr0rNFr0aOfZoUbNKv/d7VxLy9khnO+nWhDoEOBRRsKQl7wD2TVt079ylGuIt1u7SpGWjGk2FeJdo+6TErdSV8vjWzTs26cjHvVRDLWJ2YKdyry+6tK7m6qpSubqo3FQuuJfp9HGdXnWtc0JoimwkgerBuxCNezZs0NSkEPt2TVs0/IKrwLoQZTHSxrGVsyv1pbnixaVSfdbSCm/wBqg7Sr7Kaq7R1IeNqqCl4dC0O2OKSSMdibJwONTs2hqrIDcGbamav1fXspkX8hQKyTd3q2A0ZaJPXw5mVJGCtm0d+xY9q7kwiUc7LjLg1LkFj59s/bY1+37ZtX1PZOZGRdqy27CfxNJE7jIqj6o1PvhcxSwrLSxXVPuiBfuPtn5dx5bMSbdVCh1T7LuzLR/JySkwHT5xVmknUgJQrXNNpjGx7QccTuNylqzifKnsyHIIouXnG1Q8HHropqbs3ZUe5vFQS2NHhm6rLofTT1tJV3ne9G7JeFS1E3HQMtC2JevJWFTYFej0CcMykT0wRtmHvDXtwlT2z8gEXksHY8Qmx+5KD5cx88MO2If2wScb1fOehG/AEhgDMMi2oZ1dO6O3Oddh0Aj9chc90BvGjwo1mSdaX0r4Dizia6bxXOLtKOXRpuWnWJ2w4gL8LzewB3MFzF2dsdKyZ+y0lJ9tnan8zu92oLT9e+ZNQAuEZfiOixvyM9MN62BnHH0Z7t1IyhdhIQzBPe/yYU+VuwPLZovMDFrtuOG/aVw7tsYa0bvhT5i3iZTYDL427+xgWKkBOMexpL/SSgfZWQGfG/7dCjceVm6J+6ptnMKFV5azQg28YlMX6isEMYsiMfRanzfEBUbUwHzRFoZCDXWxNVf86kMMKv8HegeW9lecrjJMtpr3w5SlA3p1qPzJu55+OBOg0zs4f+9AmdpYPMHiRUvM4NAGOdGymR88djTsKnfJpKZSdYpDKMtECQ0fMRqubY3ZRHNAnQCudAOpGew5Yu9YutI2mNR5/ODXXxlV+B5mbxoxhbehaCrU70JLe7kLJik1aFvzlgyEfMdB4/UfYxzZ6RYhGzrOxh53tNQ7lD2rKr1vsGTmzl+Lxm/UrosuGG3rTdmb0DC48y3eHc8se4RznVV7OdwxaRFjR6DOVGxqHMGY4JXrUyYwHXhGM7FpxLJvtUdPtCjhV7blIIDxhn1H8htVQYUH8u99LLWmmhafrdB2BzjI3bY22zA5nzvKXS5JaPEpqu68hWWhNRX8ZnP0QhxKFyld0jVBwARZKDIiRGCsyLOJlocV36yN9gAE+ywluyYj6I32g7ehta2lUCPIrZaJBZgfVq8tspAOnboa3ec+lvj9WAv6d1vhp++V0FmJLTdIWYb5204Ys4NmutJX50Bna9MTzBlTVeQul7hU+tAqPSClYeW3qzG88spVPmneRbq3Iwzo+BBbMsfxpzJb5IIlyrDy++pqzOF3Nme1RqfMqSd3scSkspWZW5HCsP77n1ewYQIdbCj+6WWywaQr8Tz8MIDKqtZP7lcjKBifv+Yf1GlUAx8HZ7vgdcXfXcYiBxsISMlOX8v9cgQFtxetq2qT7p0qmLMybn6l8+yU1NpAx7lCBaN/xVbdjx0rkIvWl+g6uui7DumFBT+xdUXK2ok+twWmWaMKoi1crAKymaWAMqvrUpHSHHDLj9uyIpyf2Ra17wyFMPNBDBk2ETT9srxgY9kodLb5uXxvDomopIaqTptyvGKG+7kpPW2716qEdG8HByNeyzyRxk1bCfRi5yMete5qy2tElC8HnA1GCcJSYbcNbQ4+A4RTIwkPNxOWGghTsPWWKGuh22Rb2/KPF4Lf1lktGzW29EHE6FJbVXLLO/KRNubUh4c9pzKEk026LldFZDOkDWZ8hCWiacJGEjWwgjwJgYnONmhtQRxzTJeGQoT1Kdrvz+bApwjB0dzmhsMq9ErIvH9jBFWMWjY7kYXgsyw04NxP7kLzw4G+QJFhPoUEqe/ucr8wYbDgdahtK0Ub3Qhsra6EW0+ilPW5zQ0JSJgcHLDY0o+KPtgrpb/SgcgE2KxCbO3g8oMwYzv+y1VpIc9K0pWux6IdblEhjoHnultIobPc5eYKzbHf+nFMyJm/K/BPE04VwUzKfuIGGhtRVn2qT4MAqhB0SYk8rMB2BgQ83LehKdiGstqzV0RuUMc82bwzCXQIcb0mTZo0q8X5CHNb+FnRjlhW0gTLhKFQgMBsLfgZQZt6tZq0/6pvjX7tKhv/1Kdm9w+4nIFlA4ntqTl15N945kjFDZVqWp3l2E+VDTh5UJ0aFGJwR6GXvKmAtSqEyQFDtzos/Zazwr3hKwuTXU0aXKB/VfBzQhwaOTO+jC6V2e8hI9S0J4J0WKL1eoZJvOH+teR+eSLjUJ3x1F9FZ4quStkkFEYSUk3/K/xxyr0ZfQGV7ORBdQlS5IoQgX66ZWvJiyygB8NUS8E9diWLtkHlBdR+J4f67b6u26lGD8dGjj0a1KjZqW5bG/SFY6Qdw3nSyj3opaYoTS+ywcKV+SGNm3TtVdfm0hrhcfgC/yoUayQWLmORlLAoS0e9Vp+06FAx/AHtGmJrqVQjMSYttOLhmkmiWseWLSrC0PgetoYKtbhQHN0FshIoy8Ra7YsGtu8IgfWvaSx3yZA4wG4NQglCipWlC58HVfvA5rWFdRRQZMRSL0Rj2RTcS1yts+L31pjBzYYVeTIrw0JW8eg1xWf9WauvLU+3sIfRKdAFHne8GUtjKgQLbBpOLW042WQfZ3Slaitv6UtZa7DPWBQlLD185dWkn9xv3WJwNscWcheMSiVnvq2oLGFZmL3SdqWFWRoq7uwESvAzh98+p0aUTn28VoYAtiqtyp+h66O0ZQl/IxYnzUi3jW15wt1WSvYLwNMJXRuFRVZUgh33ubSPsoZCA4yFctFD/6COTRq20A7LTsry+OOf6kShYJTlAkf2uFKuq22LyaZocS96lOWWRsn6xWUE47IEkz4UA1VyZCSiyg36azMbtD30RL4BZSX8rWV9k8oO5KhshuFHAmmrq7LGEA6guyxFjYX1UU1kc2h6JjdNH6n5f3MFWPpMcISsZXNprpGJrRU1FloS3S3UwlEYXKhPQ4VLI78InNyqULcTLGgrqZLOkqZsl3OaGilIWC7oAnOVlvl/1lHejggjyGg9JdlILYnOUUykBXpuzqOAwPc79pG7KXiB9iZVjvGkPrJ8NgLWwGDRPerZ1NGtXyNro5xsAxQjrg3N3XG9FV9DB3C5DSTYMIPc1/lK7lKZ6M6vFWwA3r8NoH/rakNZIJBjoXKCKigRtoqZPbHAa7RjA+izmtiODyAicboGuUtlgksKJv6IPaJiRzvL9AbcrpbNBCI6IKuilKNnRZq7iyws3O0tfizwxdY2k+AbuRPdT+ZCGaH0p7YxEgquK4jatqKs/6BKr5QtdUeoVLahKwxWTbtATda2kf2dHqiKKGVZaGGCcTkR322itW0oC+nv9KHcpTIARqkJ11/JYA0T9JG2oaw2qKIrxd4AWNlswzYqXo5A8D9sQ1moaigkVVYlUZpLTIki7y1IXwsNsbVswZ6F2oeuLXeh9OgPysNujliIiMJCTbBEeZwtHAvcEVVwOQtUuV2/KjVrNOjlWF3rluxmG2OgDlRRRVrKVpezhbiBPDNMjq7W/usa1et80dEZLIcNqUqFLK1wuqLcSfm+Dh+iaiFt1vdKXzu2bMX5fJZ3FVi29RQ/gUemNJLQvNuuR2dn9IsUZxSR1itZvLspfgKP7LEk2uusWqUl9sQJ2xoFVfQCi20qVVhkMQ3Z5lj2LTo7qVEPFxXx9Eq5s/D9LbXoisvfAoPchRb9qfYNmnwq+JvngkQbjlL0t/WUff4RKiK0nriPrFrzQ+ppqTA2NwyqKGUWRb60myr7KHNUFT4T84Ed6jCe6aOyTV1BhZbKD0O5Rz7Y2fVBFVjEALAqyDkdiNCWdvjmIt5bdOiF7ydeQ1kL0je5lUgPq9qAPRWDuE0vgbAkWx5oaKykdAgwfVE1ECcWumrf1qiHsb49q1+/lEjc3SowGbEBpH20lxhPqsnpCC/rpydMTSu66KRWdTXFRlc4o4orQrrItuznUmsRoGGYbiHyrFpkWaFMrkrxyaSCPv9I8CidNp0tf3V8kWUolOShyLejtJyxBpAu70KbsSo50uMDtS3h6uqqctUuAgX1jZFFWK4qEbpDF82LcdG+IleVLrMWUli1lGnMQp5e2ETYZ7SlnlmCSu6je4lWN4X+TpZ8pDhoPzYX9M9PrciUDuiIUEHPHbeH82kztq0gPRfDcCqisKRxc0X99uop0c2hEbL4Qmab6QT5WblJcGCJ9HlrBZYVY8+NyAeoxC4L7bQinNXNAeyuOA51mCx4SkbQ2RXbzWjSaq28WRb6DAHhPPWbAqYrHn57LFk6g31GhyXmlf/6PzOFQWPOznpR5sv5EULCs7samPD8/2WvDNpkKvymZYsSQwpWDdN9yuVXRf2FKs9/Bn1soVBdayUguxXPiTlOWn6lg5dkjwnflTQvZu6F/mbcszIfDh0VtPJUwexxmFv6hj6fZMAnNHggaxHU4xJWGa5/HhrAQbJeCxN8TE8I8EJfE5AcdjajcG9UzLWppsKPnfHs6dBd81dmh70YwvGnActPSbk9daDz+Qnll2xv1dnz9P5N03B/jD68KTerP5ZBc5LGLFmFVM2wwWfnhxvIODtrUjDL831XLclON1w//2xIQShOisaC+s5ecirD+IRlIWWI6zWyCgmacA1X+qzzow4XlCX4DmApGvhUPUrKc60FbbUU6GDo981hzJZNbSnf8krIyUjdMvdaoDteWHHugTO23E4sQ9zt703+WdcMzPCfk5rI8vSC21v8Zxiuz/K/NSHoD+brB7zYNOeW8QvXsm6tpBdiYOmBpFtZF7Dld78QOzdmaMZoNs3rgIYApUSuG2iLLnJDQW7eyfqcacCvckDokvRRuc+uMYjK1DxznxYmltJ+9VeT4N5h1wPGUWdVxlzoWYFbDgYgLjO1rteCo5nQAwoLKJcOfHB413mG3tZQ+thzQ8Nf4IZzLE0FaTOhwJy1LEjeZ8COYflS3PirVAe8OPB4LbumTKrJPevjR7lXGCys/mtXLmB69NW91JuWP6eXz/w/F45+Bl/+P1hYXgkFy+ZxLP7c8JwELq8HmGgpKTW/nSM6kkGINWFV8yArgDldPS7kaQR3WWmIm7vMhzJ7HnwRvsR/72ymZ2Zsod5zbwj1GnCeMyR9Dnx5xiqoCgtCJvCoQhLtWSzUU9D5Au0wZRTAOupgPkpFAMuhV+iYp7EcxkBQWGNjjs4eBt0ldD58yaAZg5ke+ksg9Z5TVsJXwDVLnkmZkx+AhrPZi+Z9y6MKM4KGcYpfMpdBOWeiVMYMhK2tv3Ubs5uo9bpyU407lTuVvS0ouM8JnwyNhn55M+LgS0Lwk+SBC5Jod8yaD/WBFHvT6Myx4MUXYsKAWZ5fWca8QXG0OzIwcxW7PQRCOVlCcH4sjlbfuYPZT1SQnY4Fm2jDEhdlRZT7QLcJiaLIM8MH80CVKvjPKPodRwUAvQilZn6z4GuzRj0wf+hVtpJvDXKXLOT0bszFUEo+4gaYkjr1tvbOTc3LQWF20Epn3uLZLDriYvKg27zYdAG+4PFo7CMXHEYsFfYmm7osmnl8yEr42jkZgHUiIOTWIJ6Fn3AWtQZFYHrFjYRQhfVgDlcVwIe6rdC6Ug3Z68+zWfQEJv0D/uxLr1Bmz09DsPOYsvBM+v2iQoyzNnrFXvwKX/vsH/M4OzBk71Re46CG8wc4CstUFmXkymvnjClmbWtdMDqwxQzyByWsbzNjHj79IUlD1NOHazPRCy7PwiGAdHxH34LHQv/DWBN3cirC4HQuQz8fR/1eTqVCl174wbwo9fIJp5d/albMhNykpNuFhYUX9yYlpc5b65kFTtK4C8uEErLP9MZm4rA2iqKbs/leQm35Q8KKmxpxbe4cz9RN5YsSr06aNOlBSOLhMZtyM/2vXaC33pzRoBG0bN638OflODukevI+xHJh7q4AbLUy4B5uTqFZF8GLJsD3iXOP9T+3t/xKzuBJQzSf+yZPmvR3dnr43ilzZsSOjeMtLGN5RAmA4UcbbHCftbs57cRIcgUJ60JmaviBJclloQsCgsf5+fkNGxcckBC66sGVXynNp23BiIxk4D6hRz3hz48+x3RZ40KyEGPX1CkLMMO72q8QnkRFJZoG4YHJuZT+dKr/4yuTyxYELPTzG6j7sqYWwQmhZclh6aNiAnkLy1ikLwTRhjV0w0f3WWkNqQ/cWTjXN5OwxmbmHs07+OekUvqKySt0UkjQFOqIODUXNDQGX6GYvpNC0C4IqlXpyLF139++aKeWgbNnwlfefmCyFpQepkzXZqQefhGqtYRQ39CAcasmh+SNmhLbn/uqUIuhy6omt420Lj53UDPr7lyVW4QXX0pH7dO86oh9E2aWJz7A2578ytKjKHqIy8oDbFl+yTNhG+XDDOq+j4G/C+njqoa52aHo68dd/QG68EJ4gqkv/HsmNF1zD5yZPU73IVqjwaPzLuauPR+Eco7AYVCozOE61RlMulbO/0DTmIBeoAvCYzQtEvP4IOPmnoZheTFULYQPMXyme/nhsDndf9Qw9I2WJI2l3khL1hgf9MtLSIetE/7p5s/C9sGW08x//MwFQhLwd17iA+yneIRxHrCQ3kw+UlbaRsGDb4T0AR/os2hT+anJqzC+c2bUQxL9KV3N3n8Mn+nGi5XnoA/HRiWgJ1mJMcjtl4hRGMvXkMfwui/VPAIHHIZN7p4Zq9g2a7x8FyRY4gorp7tfA6bkCVY69dQFE6kJGlww0OfF4AQ2VWkZ4PN4H6yFCYvAz2dRNmrODUbOZPzSY5F2p0EPZyEfq/aJgrvCcvM2pE859Il71AvtI8WJFqreq0XNKl/LkCakH2Z70IB17jJ9nEV5WfwYl5ML9zVzwsGPk4NgpXhmlyJuoi4F9qvdAdtmXMQBpLz9RkPz8zh3YBdydCH0xIhdviLICraANG7StVdbCWfy7/dkLp11nu5VmUUrEZp1P+xk4J4EfrzwACws/6BkxE0GFIwClOBvVmpcXAbST2pBIjQSTo2dbB7twnZBT8yc7ydN1OznHeu0kCRfSB9kVhkAK80gUFSqfAHH6kUPYe38EAx0MupZ8Ew6NhU1afLKHmq+ZMIvscAXNqGEqOkIoYXf3KHA7vas21Bxzq/ELES5YQqGdoXfMeaFN+9aU+Rg1rpsslI1s25orgnX38L3JgA5cEP2nwe5ZU2GvabG7puFmEn7/TjFfMmu7CnA/GnmP/TLNc8cCpk5zo0BrBIUYU1YxNMdBoSaltn83/g1eLUPGljtVoCjW/fPsM810ty6p7eDHNzlzJCwijKNOj85GChR2SLK5P4KogPxHWUe2eI2DX4MuIY+PYB65il/cGIXF/UnsFVEEdYznOmMDaQjrmluxWzcaVJT8IjWNk0dezpzKHZt6ybulAmWnEfsLkyHlfMwJwAoUXABxdJVvop2hwEJ88wbhTNOLsgD+q9bQYhHjsuDnBcGjfIFukGKsGYcxZjOWGA5Z9pFqzwXvBf4Z44MQ6JDo+o8+KR9z1bYrWYaba3SlV1DPu9IXAYcgO1GzxJBa/nAIVGwoesifZI17gFg7Tp/ZVxYrvk/A0ctpFu+fGCn5znLwA8pwrqQOtuCLospiFzbWQGSwkX6OjXEj0l9kAfACYGVJ0lR4l7lzRUEj0v9PcdA8X1+F+GYh9xs2g1Ks4G96l1h8D7gUIQuKAu/qCvgh0seQx/2P3eWbf+ADvNAR1MdRoVOX9ljWxCdG8ZqrNxkqkpxlpD3sPmweVCfpBOWuWUGroQ3oj3TaTfwyQAcVsMnqxeC4T1ROXRXm0WwGzPsmDqYEsMRO4/3bg3b7hjn9+3UHbtC+1oEtxSnftbpyu5L4ctkBWFRdGGZGVAAdy+Bv/pR14XQyvFwmWrAsrnm/16bR+9wfoXdF2BbVyhlzuceW7hkoNAnCHEeIxpj04e0EdwOWc/K+RUti6nMWfOYhaUODYJd+G7/QV3/L4kx3SBubNhCleowYBrb95g621f7zQSNDe63EiHr/LBsavT2lv+FDbHKmIUA0alh+rEPcFZTe9aDHfjRuIOVuqId8iRzdiuEsCCpH54BNXPUKcrYNiDb/OEFf+2mXxgQFB27lhoP7VcGDa4RSZTQ+gJarG3Ew8PJwQL3WggZ4WbxjhjbQ6U66C9YRjOrrWe0cB/l9VhQicKGQq18bhlll6Z0jPlD/yStDf15uPkvcWMLKNuFCbMgl5ks6i6RTzk1xihu0Nzc8kkc/RdEeJsdcdmEkImOLaO91XuVDs7ClUYQmIdClerBJqiV/ZOGUD4Hdo1jyrWb1Al54BeouUFWnYQcnv2zKZOw4CVT6D4419aO+vHUc1Y/IF7QJYgTZbUvMc1eQ6CT/pwaWCsrO7uuXGsjMAN8xwXrWQhPWNiEVboIauILMcmwZQp0rXkaolWR10EwwD+dEuY6OAncKBy79gE8Z3MZUPoLMizyWlTQlZznoQi7GPhtfi+F89drfS2msjoKEDDUjXtlhGWcz4PJep7D/sJswhr4J9zAsQWwT9ZZIChjqD5nTc5DYLuQmp7oTygnQ9Ze+HGaCadvCGBhhcmceSWZ0bed38vk3mepPsXEtwqhrP8I4bKDPFBaTLwS/j6YHj4zNffphPN6JkQNHfp42cmz/wzWpSClCwue2Kqfn4eiwCIOwFIon2H+bKbeFvHgItAp5Z6CLg9OdAct/WvHQFM2bcOqgzMoiWhMXJgR83Rm0IHBnDKtCUxPtE3LamXVEsT1nt5hidpj+ZWOTjxZmDTBM4Iybcl6NiV316ZleYlho9OnQJFYtB5LVbYJmhQFzgctlupxR82ONdc26f/ocxIYzObAgfurTkIFyQWDr43r44JChowgsTG5m/JCRguUl5f69hmMp13Q+8PWzeCd+wqz300/10I8Xal9Q18cYEnjEPt0Zi7jlo6GgFNQBOLY1KtA6f0mAbaFKQYNLQgBc3rMhyZRo38Bb+Y+qtQ8ITc1qu/op98yxtgHbpm58s9VC8ZRJ/PinljljO5brNj4/bQOfteIF4jkuOLt54z787FnxFjmJAhx7mOnxsHBCzRhDRwChcO7Z54FPgzOBvZnkgwu7sN8QIvCKCil20Eo8GvGMpN5CmzRhQ9ykfFkQLEj5j4sPDiES1pbFnjRFCOxAAAgAElEQVSIsRp6j5jF0xhP+27CyMrOjm6sFU1XAwt+HJrJN2cLUlhqv0JwHRcXeNI4CmnaJCEDcJI5ahgkBwTkArP3pBxwGboSmj+ZN6ChFzFgXMiuCyx5QdwjtvxwMX00OEUTpPdnsFerqyGT7FW2KDzU6RPhPKH7UW8u2mnOA0PDLiLyv1gkLJUqHY4C22QIyNIWvnQXIBTTrp/fUcA/cN5Z8zRK7RsEid24ZKS9h+Crt7fQcgTSuBBz8fBo6/d7uHgt6/kcGfpuz+4YSqVxdYEGQR2UPpPDOTkWog49+NCC3gonrBDY+D7zT+3Ypm+AP8xh+nHupjFyYDowLdsSZF7Eec0GXR/i4lbqra2IXmLY4KNbBsWxZzOakZq4yjjUCvM+mX/sSFMmrcdgxrlOXUFdVNuIFkhIxWeMZyDfDFNGYaXThTUbdmWZd2Cgsfx+L2aYpv5AFKEXmEM5IslsW/e7Cs7X3CPCvHDvQu0Xmj2KuphF4B6b+figQVmWCwssAcveLbLP6s78HRDnzkIe6UV9umhjoJaBs9PpmWQ4CwvRYy1cCS3/PYNMg0/CKfOOccRMkyl0QDKwz+M+Idm0LhyXAQYFxT7VTsqwDVmac/J2DMvqQ8u+vWfLBJjFGzHLU9tItJb6FKWsStymWc49+3YQ/oCoSmbfMFEdGrxK885brCuksFQHPcGuI+J2sNrw9n0yzBOha8smmb4wLgMQREyYaSwM2Av4avXPnP8HY9etXvhneeraOWA8GZJBWw6wxuGzAk+0wGkKJXTsU9R5KR8x589zqvVBV8camH0ha6nJ+GjhCAibg0zRYYWwRo+CXFmiZhu7oL9/MU/l5oJh0gf8zcLKPGzat14A2VqnzApg7bkTZoVz6H63/KgNyBBkGHBRoTQKdgWfo8ayuphYCscWndr2ETdY0WhrENkTeeCsJMT8au6E2xkHDi4xEnZw5Zj5o5Lm0ZMTI4U1O28GeM3Dq0aPhX+AzMr7/gaM4bOAD+b+avSMWTgaMjb8wGEE80rweXEqY9RT5ulWxA/a5LZWvlkXF4bllCsgLSeBTuUShnbG0ltXezYG+ITTrNax53b9mJgzO8AcSTXAt3TV84Kr2YuWbcrNYrG8awjOgQSx5aThmgGJc03PCpwAJjAd/dhs4Yz9wejVXnoAHAmzLnIL7VL7zi7IznicG5OF74mvpb7wFXk/H2i5z4S0FViLfuouui+D3xVqxvW42Hnz/8Zu2yYcYNsr1OC16hzooDx3l6ELGgc4qN+6DTpeJS8zT77G+l81SC45HNzPfpjHxwKVnB0+9Jx/LG4XccaY2QJMXZmbx/xpKwWd0aozoonuhjwgYRclI23/C0dzGBx7B8xCROnQCIDSkQbGvND/GfQVfZgB+iwnJJqn3HHuBwwm0hegRb7/3iV8HPe8fIMTJmUffYiZyk/NTPQT4FfL3EDmT9+TW04mMGdoCk3wP08pk5F9hTmMeV/Z/LF0LDwM9oPusVf1fc0SIM3M0BBwYPPLAfe2Txpm72G3wML9WsZ3KTesdPKsReFDUYuTuLHzkQlI+MI8TzMrSzFHaUoU/Dx7PmUnZ+6uB8xpXzkJa+ALOEB5kd5Z8ADgkjdqEuTF8Bw8vKtQv4k47AqohGt5FuX7WOgTErT3YRY9/XfuWQmcJk3KchLkMEEBaC2Nr+iLtZBhIC6OfrgbBU7CUif8CnWEhZN1fw4yryrjNiVA/c8fR4H5viEVJJStb2oU36PgTIVRhSam3qL1Wlmj1BIEPJkasYvcSZf1NJVGV74h8LI8LnAlJnGxCU7CUnmlQ45dQ/W7NzMB82gGPGEKBfOXntOfMAfF1l/Y9MLiag5MSD5MO25s6lChgi0Yh0NTMyrjLM33pBEWJfKh/6AJS9hMRdyEpYId0bdoU5X6hQITrylX4Ouh88C+1Z8wtxI0dUYkDkE8hjNDQm5TfRjPTw4WyEbI1FTmRyhimtVcmrjU53Bq2P6xhfTzcynMeshublBpzx4Hrwos1yglIAfY+NsbBl8/cEgSYBh4HKDRt3o+kCHS3f+FZQmKjIzLSaIsEM9lLxDsx8twI9NHVp+jJABtJArGyaGctzs3kTVXy1l3Fg9SPQsOg1fF/a9sgKosDzDcz59E+YL6ImBa2DvYT6X2nQk8KfYHeqYtfngdhA966r8lvUyKn6+5JbvKLSs7uxYSpZQJoRz5fSuMLaDFizJ44oTld3UGuBDbm+On8ikEBqNFNAUHAetTbWC+bzI4mnrO55+eiEJZOexlOvdxsoAbZvgbmZUl0q4yD9pLlKDhCnyUSP/MwWzG7YQMbsJSPcgF05HOW7RQ9SDKNBbFjQ2hPQg0fWkD8xOgoIwJIbijxDjjdSoGWhpey30g5EwWeyfzBx1lN8AznUMgJCun9IfwZO0WBhdSvoET1h/loIVsy6ZgVY459HRqVgHtC+AaUBuYP6QcGDnjUvke4oxg9G1olnUtV5uSRMA5B/utrEvJbj3vS5X4g7+wTlHCjrHCSggBQ28iohLA0NOsXPoR98nLzJdP3Tdb5ZM0AxBBofW6Ug3eBOV0FlxY7DjLvBvdQy5hZfowm3bUfssolnqssPxKc4FJlnvM88E/As+Z/wftC8Hg6QOxOcGTY4Dl5/k8xCP4MikcFtZQrYFf0FeNnmgB8xqZ9wwFztGFhyqsOS+YA4b9fPZSLNiZ5XSJGHgMNqP/1VNA6Ok51OpzFnDCTsTZSbPAcWtXGP163gwuhDbcZ9zW2laE/Q0j7wbI7XN5DwAW/txnDFRh+V9lPnh0SBD1YDl96yA5CUaBZY0pB2J3nj5ACLgAML0GlidmgJ4NGbOtrqt2jgXtX+k7W6GXSSxC/VBOXVUSuK54qOaGGYiYG4CAWTHU9HnfRmGTyc4C7Uaxj5PMmhybugBh4H9+1NxHDdo1H3D9iwtMtM46qsNl1lrIthuzSGvLlzpVsLWZQ62BlsRPNP48CsskYu/fDFcvnDWqP5VBc3JwziyzwQXk2IdbzJqcW4jSyZBFM0xXuK/94al5ihY4JUeAyiakQxmR+k8JQx4JZTXMfZacR0t3ZiyZkLwI7w/h7o87xlk7cX/wGBVsfAo3LfM7CR0ZB0zOpqSjzGXBS24Bl881ezH3n/E/qp3e/JBxwb6c8o26qpfArjzuUasE6AZR0JQF/UGwBAz8aS5OfRH8QUlmHef+ow/u2uAXqTNQfr7l2G9c2QIeGQd8NzcbZTxQl3mClwNbR55nsT4XOenzr3DIf+WmUvtumgGV+9ou7W9InJHQheE/28snrM9FqSwK34NUmZxPx/z+kxelZiEjX/YiT+zSUvAYE7c/6gXShyIhNQt9/RTchoBXQvjaLROSfs1+zqwtF8169se1lKPQxzB+xTrgJQEcZ/iRXLqqLGKFqRT4U9p+UG7OAvpo6DvkxUlq0IWRZ9iT3P5YRJ3qG5gfihRv8K+0w8x1RKTiJkPDfHRLzayh5dmTfRJw21EuqoGhBWO2UAqz6x+ViOZRqCeEn/KJXML6SKzKIki+PZfSioHnskuhTkvt5TfswRjactBMYSnGh8u34Bpq7Ixzp5+Dor9+5VPkA2LKcf3RwgfGjYDYKYUhPr5+A71oZVEP8Fq46nAupfxxY9O1NxVvT9YF879VqnoynCqto65olaUTeuAZpRXdI9YeTQSmtX5lOXkXf9gSiA8AjTqA8ZIf4PMMNdt3P5eIulozXIXR3Dx15Ibg1ge+JmG5R9yakjsz6MqfyRS/UK+AwSE/pp77llL+iFRdzI+Ym/243lCNPRdFZFqIWFkqfslD6bnw/H/YlJ54MKxg9KyQxMMnf937EJxcDbp2jTJ6zk0qwywloWxYJsbOXIK41lUbjvgL4vL+/R/Pxi1VzT2WTlyBnlEzC5edzMs+ePBgweTJk8MOnrqSt+zi0Ge06MKxMWd1Af6i7p0ZVUt9SCuZhFVdzMpS8Qvy7I/gWsy8vf87OjTqnD/llx6XmRtF9fGdgwsYC1iJSjcSuIy+A23IchSEmu0HLsP68vg+QKXiHrT26dOnv4SHhyc9neCJjiv0H+UzwPxcscDdXaZ9HUHPXGFjwHNkLxHnPnXshQtTp7pTc5kFHp18iuKJ2f/bcLpSdPhNRo1tEYml6MtVqkUolT88i7uc0mOZC69h0IULF8Zq/o2OhE6drB9dRd7td0E/pKE8wpI2t7tv4jx6zB0O94jwFwsTgijB04GpOegGUo8rRHRBsQXUKZPp28izAC7ize6GVSFvZp5aqF+fiL6h44J6Rmt5hCWZb4Oe5DFzuKaJDIw5qj1n4iDF7zT2MTYy6yQ9s+kgT8ohKMAv+sVR2uX0Q1AAvBLQ031mIqKyjRE/4nvqIp/QVBZhiXaCMBqv2bs82VMs9tduBT8MStDarMrSIefxqZ74yKyD9B5lbip8NdjZlY2hXR43NozJlecX9pS2lPvFRUwIMdnFJHABR3WK8rhl1UKUREz8fDb5szeIRkDzDuiXfwMLzoNT4sxRuFWhpgv6H+02z4IgXyxoEPU9Rbs84txgpq3ARL5jYVxgUmKAqcuUwqMSoazGsgiLf7JmK/GaHOTJOhqOnRIeYkzAv+DAQ+O8zD3wh5Mv8G7DC/Jo+dejsvHbL+oc2rDs+SujJ09ZyOM5nPpbAxFr5/9TKvTRvmzQ5StLvI5UkRRmvB78ep45c+fYOVE/TjKt+r1Kww3LtwuZqYt8GDKFe11dSxmrLuyaBFoPKO/8+e0Z8OXuUbOYtwGD/yx8msl2eoCBuEH7cn98DhkvpHECp4243eUQVj0ZjqlfmIjbCtQzN3wy2B7qIQZ/G8/wUP3fXbRN5EIvuU8GZZjNhPZ+qW88YAnFpzVwFPOJg5qyDBtd7sl44omJsfuCLE8AISjN5BDWpzKc+jwgtCBvKHXb0MCgOUkZIT7B0PjhN7o8d27ss8JsH/Mp9S5uLvSfpq/PsqHPjDvdF26dH7oIXOPR+guvgCuP124x9p5ZD+fN/5M17+iA4D9GZy8bmskmrsy9J5fMluOEOQSfyhBuX0meU5/9hsw6eXHoOUoiqVjPh3vDV4bNpi3MxvkcTM84MJnmdkDLmTpg8KwDeT8u0/FjXmIIlKAW0TeHFpw9nKG/fNnJxOzB3OJUg5NnrQy6mDrBE7nt7R6R+TRpU17YH4hFhlQvm/Ic9PlNouIgUU3pDFx1NeN21MNzMTGec27ti4l5tvZhUvjKAkEceNVaeF7Oc469cNU/i+bPfLr2WUzmHH8TczJjzk1IDT9QkIBeYsgkrC+lF5a9fAfVew0LTij1ybkacjijPP3g1SWDyxICxvnxPsUBMdWSArWX37iAhAUPloSsLF9m4sdFs174LAhYyL8aovKx9MKqLInZDo+XpnVK/5it0VSwn8XrcnhExPxQxKmmX3BC2Wwfn2TD/80eErBQ0NPsLQZ6C9Wkd8qSLvhLPHTv0E2ujlehwL+jDpILy04l31goFKZ3qO253JReH1lKhzwVTFyclN4QPJFnxsXn+XKUUIbZu7PK1pWFmDzRKyRKFVE35TCVk+F195ReWM3lqanI0GokWTfB5V1K877BpzSXXlgfS1dTacD4UYr2JMUC9Z3SLwt1R0Er/BUxgYswd2G+SmakML5BwpLe8b2lvqLi11MkaHMaY1VcGa8SArnXCSxAbVpXcmF9pX+wwl8SFoZpuhvjZaI8m/ZcS74vCtLbG3pJX0kBQRTb/CeZNnu4I2EBHSUXVidjJSWro8hA0eaySIvHq5TsrUvv9/6+VFUTA1S7cP2bMpBqo7az5MKqbHq2ct8+L1DLRHGqhr8r9+dJ9dJlsJCand6VPiWhwvXX7iK5sJT3KptIL6xW5qfL6kDDGx5qkb5iemWpva8f13B9hBxvFno/MqQG6Wp+ui25niigT8CZGyZ67DhyvDgtJSXl9c6S6W+mvym5+zolJS1tz5EdHiM43kRoZIin6AFVUgHtxQl+7SFphzFiR0rJ20M/3XyZP3z48OWRkcsjl2v+x/0bN7e+Lbl7XLqiQa+oi/TCaspQHMWCbw5k+UWqFP1XeGRnye+H7t28sTR/+eqR8d8AxI9fPXzpjcub90/fHi266ZaODLvQlSm1VLxZERGcw/oFUYpBIbp45+Lfj/13xepvGNgdeWPrxmIpgqPhOssgLHo+bmGl5TZR4NfoyigTKXssALW3x/Y194b/xiQqA78tfeMNfFOs3zFcZxmGQsM2NFwYAWu7I+W4h3B3Y5GVxHNEc1mKNz56OfzE7nh2XX0Tf+aOkC8EA+VFdJRBWMgzT1yEaqKd237a+mRdNG01ZBFiWaSsxHvPxv2Xh4/kICrDcBgNfFmkGlFmoTIEgOE3dbDJN/hQFPnNN/n3FqfsmGjtnVj6Kj2Ya8TSo7b5Jn6386+XZ7iqSgcoLHE6WepNZTCQ2tnVNj8f5S1gHVvjtSui5cfWebhacRdL36fouKjcPKb/d/xuXrqChSVJJyz9XqEdfEyT4LXcr/0tx+8efumnDUeEvjcdnBlCvMbzTju0nnEdyCosMX4NtPVXVzmEBU6yBG+BjZf0M9rdq+/9tW6PN/sXrEGIbWGeHClZiuyuTkRGnsH2Y7CwpOiyZEmRVV/MWh5Zkz9ev1b6vxOX/koRaBaPQYapfcqh5boueeTIM2dOrI6MjByu5/K9ny8t1ZneV58ZGR/PJCzBuyzt/SivopccwoIS3ArdNhOPl1w+oX+d8SOXX/4rxepJPB6GsosmubQirbBWr7hx+adDh55sLCl5vUfHd0eOfHdc8++7G58cuzGeWVgCFw51u06yCOtLsAhC/3y8j5e8Mk5C4le//OmvndcFfoIJGTos9Y6dv297+9f0jYs37Ly7PW3P8eOU0T76eNrOkqJLq5mEJeyGoSvwTxPyHIjZFFE84XDzLtlsNvKMXPFo+vbvRJlrMepKtM1edXQ0W20mHpl+B7DJx5+hCkvIXzO6olVlEZZdY+HqhSTt3+HA7zXyZgltk18A5LSdsj3bRWvOM/22ltIt74IV3pwhBfxra3l0ZfcJumyC4ZG27aX5xe5eveLm/nWCD4gsbSOu6wybqW36JXP9x7/0oG2fCv+rgOor1xFg4rvOvH57+Qwwgz2zdPPbdcX092sFsm/2UN0kXVWAaXfxz+bKn7iH2CvkWXxXN7b8FNB/yXbOKmUsFMFkd3zx5eWQXefE5d+nFe8QzGmX/T4SKM/FTW+Z1PzT+DTDv9f9ZK758iLUpIxP8VwQCSoY+8wGcgmroRW15IbaY/sxcKL1Tfzu8ct/2khdRFmKcpK8UNErHhRW/kakMc+i0B5Dp8g2EreVS1jtqCURvs9SR+/cdno8LK3hNzb/vm6PAAOiwsJARkSnpRUfMVrstI0ODoX3d06kbfDrxlHRlP+pTItCOyhWR48Io6F32u83l38D8/3SzdsWvz4iTRiLNF3WxB2vF6/Zv7/oyTTj+kTTn7wxT953v9T/lFxdXI0jGq+CWVALWY6m0FODVhgRmlo9YsPP46nbG9+MXLF1w3GPEZb3W7w9lUXEbYTHkZ2HdD3ziZvTTLsMLmuWmieXN3Vzd7SrK+vvmfsPHniAPAfL6ajqzFQwoXCL3v4kn+oQFz8ycsWlQxssNm3x6VtFl+COdUU370fq4ii+P7N/u+nvRSdM9V2x34Mhzo7ZCY7Pbwi4VIbctiao03dK0YTCI+0JbTjUamvFzf1r1hV7K2yuxA/v76ZN3//qtHn3ZvMGwydqj63mFfHlN8wLFnyvxa9rBi7uLaOw6n/Kq44Wo/Yo2ZxP3ZTVjYj5r35fJ6x/PAKxuqyJHkdSpq35dwUU8/VqseHTEWmbzX/9aTvbPjxy0uXK90dnvoccDu9m2iMLJ8b8pfjJCoyn0sjL27azfx8oHv+Hi6Ss6JTpr/Kp1Tk2zeAA67HhsvmvmpGQSzGhglryAzc/RRZnLBPdcOUTvCk80hb/S2sEHd9Hrrjz77bFHF1rODnBI75m0bcYGHFk2pqtd05Hjocrs3v4dOOyMPrJelMVV0zn7jhkMFJZViyzsGSzYumhWRxM1RO6LdTR04ouLf8eqa348Utvbl2z+O4eFo9AK7pSIX8pE6+nrJtetPklfd54Zv3+FONVR8y24d82TxPw8ZyoXUleYdVlKpzQQ+KRNzeX/4aLwosf//LQmxRtCg30oOGqjOwlE72jr6et2/ZqOKIG8WdeFpl+G+o9l429WfyZ34ulLqcs/u4gTRCFEm2yG53y9jQubjg+fuSZyBWvihYXi+UjL0S13K7vfLJ1/fLVqBCd788c2xBtGvKipy01/oZ2L58mqnM2in4y68rua0mr652ycXM+Pmwqfvfy05f/LZq+Lm2HGE+3cr074sjOjW+3/vwyfzyy8KsvbZsGxCQVPzF1apE/p1hXcO4Yfzyt5daV4TABdOnEwHva/svLmbMdrF6/uWj6tO1pR4S3cFk6uI+IPv565+I1xy7hQp/jR96/t+Y62Nfe3WyybZ2e/p0gpeeAsX7/kVtW+IWhaHjfPZb/G22Ph8LI/P/u31i8w8N7hHBxGC6mf6A/dkWuht0ment47Nm55t/TKEOcUVfjlxalwF9bfN+owe//K5Q7BzvG8r8vt6w01KEXT1RbuDpaMx4OZxFW/EhtZqlXOsu8YE82vHWEeswWJOpwOeL63ZKiny6vX7F8/Pf4Muf/uyENtvJGrzHpcGmRtxQpjPTF1/9Lxg1oM/ZOuOKJhfrItLc3h3OIUD+Tf+PVsaI1JdNSvhPYOO9iVJCrK1Vopl9VdPHdDW/eHtp8eWkk49j9W/6rt9OiKT3r9q2mz49JbmtQ9ZBbVDoa0Qsm+so+uuTY0tVooxaVkSvuHHu7cWda8Xc7rHGH4I6L1qRwPC1l3fRD99avZktSFH/i9DGEL/90o9n9+zNraPE5YlPPQW5N6ahKj9cRfV/YbcT1DY+4pT+Ij9/92/jxkUtv7n8zbY+VHRe3ZWF0yoY1W+9Enhk/cvf3bJPBb37bvBjlWbbVGKFz4uZO6XbZDR1CQ7klZYDRSioWE4/cXfPvUsY2A/l+fOSKG5dfbT70duPinWk7RLELeR9JmbZ4+rZj925eXn+ftavScf/VXzuP09cXI47fNIyeu1dMFyPsDYNewtXqy60oI8i9aPHfgodmqrWCX5Kpb86suPPzo/2/vynZMO1uSvF313nOi1FjvPeRI8Wvt0/bUDJ926HNN2/kc0n9qGN8/p2iDUiNRy827hMu35wm2ZLQSEu59WTCvja1bBJtn3ik7D89nlOuRQq7V7+8+Wj/9MXT9lyP9vDw8Pb2HjFxIvfEp26ai0dovqT5anR08YYN0/dvvbn0DK9yxH8/csWjDZhAyePGfcL4S2+knGHpmu3Tj+TWkxm6k7I02czcvL/b+eROJGMLYpp1/JnVkcPz7y89feneo0Pb1qxZ/Pr162IOj9S++4nX015vX/xmze+HHv378vTS/PzhkZH09DDMjF+/bd0e6lrQgDptqcGItbzI+qyGfFFOh2UH52HTIdmOr0fxhrevaK7LPPht9fL80y9fXn716tW/hzTsf7tGx8bF60BKpuv//FZzydZj9169unPp5en85cst6C613jE3ixanYPui70qMM7R/JTU1KK7DsrNzoOfnluRV6DrG7zZsvbyC22SZnfjx+ad13Pn5J5CbN/R/RjuF8eLM8JePSooZanX3kP6HMjJ/o2hZdlDo5u6K6rDs7LpVk/INUFEfeXOTZ0pPGXm5/y6z2aPkjr4y+U+KpXl/BrSdgZNiloQG+kr6CsBXocX7+N03W9ePFKjXEo/43+7fW7MuDTO30uMWXaTvfu8fK5YgubsZ3cuU/rxeNmhuDtJmI54YfXf6oZv30S4pCmHk8DvHfl93ncX+P3G7Looi/sSjdRK9O4DmMnuOInCoRSmjJLMs0CrtvWPd1vWRZzjbkaRl9/jVpzdv5LAn7r3mxjdat9EbJZL2V/oG6yezilC0o+5GS6Es6Blqj+tpJVtPyy0hNMNfPdl+BOc4DeLxk9Z+cubSuh3SRkxqRxiFzdwN1JT0PQCvA2DEkZTFTx695J1FXVxOLN38tuQutxmTx/ZLmqn76p83XJfMWUaPRsa1lbH7TOMrSlHlCV+YuGPak0eXlkZi4y6k5bfV9y9tLtqA2BFEE73zZfzu/HsbpXPCMuAib1g9I19I/C6wRL9+8ur+mZG7+VnDhSY+fvfI8fn/3baTjwv+xOOvIvMPpYn2anBodPWh3PrB4tCFXlpZmOhxPGXnm0OXImW1bsWvfnlszbTXe3idgODmnbKT46gpKC6q1vZy6wdPG+p2tIzBfBOvby/5/dDPp5n9N8Vi9+rTN7e+3bhTnCziwqNpqLpyq4eJDs70AsuIes+Gonsv85efkNJ2Gv/bieX31/8sYoijCLjIH6PKDFVZ4guL8QnqER4exRuKfl5hxTY1X367v/ntuu+ivb0ld0ywHBdVM+WZRmGkVxabid/7evH2aSXbHt3JF7vbih+54vKxtxunvS6W3tvFOlxqK22PkI70yuKCR9q6N0WPfr50On+1KJ3X+Mj7Ly/fO7Zt4zQZJt5W41Ktqdyy4cD7lBm8MpSlo3jDk60/r9ce22aR4ymK3SPHn1i9fPiNe/s37hQimbMsuNaUWzSc6EOJ2xFdWZz3u72jj+wpfr1uetGjy0tPsIuGC8Mv3dy6rWR7WvHx6x42NFmHUUYgITttPoPLLXaOYn63nxh9POXuhpLpf+1/dO+/L1fk4081xfPb6vyl2uMGi5682bBue9p1G5tSUZDtdBPe1KdaSkX2obFMuMU7N2x8u3/rz5cvrT+99H7+8OWrT5w5g5NZ/PgzZ05oz0JdcXr9y0v/vbdVo6mdtq4oPYqIqOeIAzXXnyKVpVLpJ0Uemh5s+raiQzfvXLp0CRObMX7pjUt3Nh8qKtq47vI4uqEAAAKtSURBVG5xtOmrFQBnucXCi6qI/EYiYuVYq544caK3AQ8Mxs/5xInZAp8rKnqCnUpdKRVQ0mEQBDPyHP1sDTXqUaogquOatJ7QFQcZjzaxmD4dqbUQs/WJsizhA7lFYhFVqcOhGOdWmO8t3q0rLM0qy60RC+nkTK2KMtJiE3TUUrALFgttPqbVhvmwKisgkuVJ6zZyy8MKKlWnB0mL1WsRZfGiXje5xWEd7ZrR60SUJT+tlZAb2Soq9aAaHrSIMo8nyuJMLVseB420oeU50sHzZGNOEGlxo5ntztshmiLGQx0ubm7C2uSJsrjQxFbtDHRqfMZeXUEgllJ2vpRbDUJStYFE0iJ9Fgut+8mtBYGp1IJISwE0kfMgcZGoVIOa7UgcbPpoe3Gp3UBuEYhDpZq0rWlRIJ0WmjoVZDWIom57+sFOwkP8vxB0+VruxhcXhxaoM3+FRrRNSVullmLzFAlIfUdqwIUYkF7LTJd3QVY63v+Slh5ecMR0ALMpOr4zstLxvmOrT0V+o6TT0qwEu9pCCL3A2Nfs/gXtlCdhebfn8U6dbS9eQjDqd6r+oajGU5d3dCb/8Zd1K86uoKXY123Q8MMu4h2eIvh+t6Jp/XHnLzspNA2yPFS2/+j9tnU71WjQt7oYfPnVVw0bvlfxaFjdsUGNuu0+alO/fm97+8pKz6NGIBAIBAKBQCAQCAQCgUAgEAgEAoFAIBAIBAKBQCAQCAQCgUAgEAgEAoFAIBAIBAKBQCAQCAQCgUAgEAgEAoFAIBAIBAKBQCAQCAQCgUAgEAgEAoFAIBAIBAKBQCAQCAQCgUAgEAgEAoFAIBAIBAKBQCAQCAQCgUAgEAgEAoFAIBAIBAKBQCAQCAQCgUAgEAgEAoFAIBAIBAKBQCAQCAQCgUAgEAgEAoFAEIn/D31s7328h+aTAAAAAElFTkSuQmCC;" vertex="1" parent="1">
          <mxGeometry x="498" y="140" width="72" height="60" as="geometry" />
        </mxCell>
        <mxCell id="2ZRhY3xHpT4bSsx1_LrB-14" value="&lt;b&gt;AWS S3&lt;/b&gt;" style="text;html=1;align=center;verticalAlign=middle;resizable=0;points=[];autosize=1;strokeColor=none;fillColor=none;" vertex="1" parent="1">
          <mxGeometry x="499" y="190" width="70" height="30" as="geometry" />
        </mxCell>
        <mxCell id="2ZRhY3xHpT4bSsx1_LrB-15" value="" style="endArrow=classic;html=1;rounded=0;exitX=1;exitY=0.25;exitDx=0;exitDy=0;entryX=0;entryY=0.5;entryDx=0;entryDy=0;" edge="1" parent="1" source="2ZRhY3xHpT4bSsx1_LrB-3" target="2ZRhY3xHpT4bSsx1_LrB-11">
          <mxGeometry width="50" height="50" relative="1" as="geometry">
            <mxPoint x="360" y="110" as="sourcePoint" />
            <mxPoint x="480" y="110" as="targetPoint" />
          </mxGeometry>
        </mxCell>
        <mxCell id="2ZRhY3xHpT4bSsx1_LrB-16" value="" style="endArrow=classic;html=1;rounded=0;exitX=1.025;exitY=0.625;exitDx=0;exitDy=0;entryX=0;entryY=0.5;entryDx=0;entryDy=0;exitPerimeter=0;" edge="1" parent="1" source="2ZRhY3xHpT4bSsx1_LrB-3" target="2ZRhY3xHpT4bSsx1_LrB-13">
          <mxGeometry width="50" height="50" relative="1" as="geometry">
            <mxPoint x="450" y="130" as="sourcePoint" />
            <mxPoint x="500" y="110" as="targetPoint" />
          </mxGeometry>
        </mxCell>
        <mxCell id="2ZRhY3xHpT4bSsx1_LrB-18" value="frontend" style="text;html=1;align=center;verticalAlign=middle;resizable=0;points=[];autosize=1;strokeColor=none;fillColor=none;" vertex="1" parent="1">
          <mxGeometry x="95" y="398" width="70" height="30" as="geometry" />
        </mxCell>
        <mxCell id="2ZRhY3xHpT4bSsx1_LrB-19" value="backend" style="text;html=1;align=center;verticalAlign=middle;resizable=0;points=[];autosize=1;strokeColor=none;fillColor=none;" vertex="1" parent="1">
          <mxGeometry x="95" y="428" width="70" height="30" as="geometry" />
        </mxCell>
        <mxCell id="2ZRhY3xHpT4bSsx1_LrB-20" value="component oriented" style="text;html=1;align=left;verticalAlign=middle;resizable=0;points=[];autosize=1;strokeColor=none;fillColor=none;" vertex="1" parent="1">
          <mxGeometry x="210" y="400" width="130" height="30" as="geometry" />
        </mxCell>
        <mxCell id="2ZRhY3xHpT4bSsx1_LrB-21" value="3&amp;nbsp; - Layers" style="text;html=1;align=left;verticalAlign=middle;resizable=0;points=[];autosize=1;strokeColor=none;fillColor=none;" vertex="1" parent="1">
          <mxGeometry x="210" y="428" width="80" height="30" as="geometry" />
        </mxCell>
        <mxCell id="2ZRhY3xHpT4bSsx1_LrB-22" value="" style="endArrow=classic;html=1;rounded=0;" edge="1" parent="1" source="2ZRhY3xHpT4bSsx1_LrB-18" target="2ZRhY3xHpT4bSsx1_LrB-20">
          <mxGeometry width="50" height="50" relative="1" as="geometry">
            <mxPoint x="161" y="410" as="sourcePoint" />
            <mxPoint x="200" y="270" as="targetPoint" />
          </mxGeometry>
        </mxCell>
        <mxCell id="2ZRhY3xHpT4bSsx1_LrB-23" value="" style="endArrow=classic;html=1;rounded=0;entryX=0.014;entryY=0.565;entryDx=0;entryDy=0;entryPerimeter=0;exitX=1.033;exitY=0.533;exitDx=0;exitDy=0;exitPerimeter=0;" edge="1" parent="1" source="2ZRhY3xHpT4bSsx1_LrB-19" target="2ZRhY3xHpT4bSsx1_LrB-21">
          <mxGeometry width="50" height="50" relative="1" as="geometry">
            <mxPoint x="175" y="423" as="sourcePoint" />
            <mxPoint x="220" y="424" as="targetPoint" />
          </mxGeometry>
        </mxCell>
        <mxCell id="2ZRhY3xHpT4bSsx1_LrB-24" value="Controller" style="rounded=1;whiteSpace=wrap;html=1;" vertex="1" parent="1">
          <mxGeometry x="110" y="480" width="180" height="20" as="geometry" />
        </mxCell>
        <mxCell id="2ZRhY3xHpT4bSsx1_LrB-25" value="Service" style="rounded=1;whiteSpace=wrap;html=1;" vertex="1" parent="1">
          <mxGeometry x="110" y="520" width="180" height="20" as="geometry" />
        </mxCell>
        <mxCell id="2ZRhY3xHpT4bSsx1_LrB-26" value="Persistence" style="rounded=1;whiteSpace=wrap;html=1;" vertex="1" parent="1">
          <mxGeometry x="110" y="560" width="180" height="20" as="geometry" />
        </mxCell>
        <mxCell id="2ZRhY3xHpT4bSsx1_LrB-27" value="DataBase" style="shape=cylinder3;whiteSpace=wrap;html=1;boundedLbl=1;backgroundOutline=1;size=15;fontSize=7;spacing=1;aspect=fixed;" vertex="1" parent="1">
          <mxGeometry x="320" y="540" width="80" height="60" as="geometry" />
        </mxCell>
        <mxCell id="2ZRhY3xHpT4bSsx1_LrB-28" value="" style="endArrow=classic;html=1;rounded=0;entryX=0;entryY=0.5;entryDx=0;entryDy=0;entryPerimeter=0;exitX=1;exitY=0.5;exitDx=0;exitDy=0;" edge="1" parent="1" source="2ZRhY3xHpT4bSsx1_LrB-26" target="2ZRhY3xHpT4bSsx1_LrB-27">
          <mxGeometry width="50" height="50" relative="1" as="geometry">
            <mxPoint x="177" y="454" as="sourcePoint" />
            <mxPoint x="221" y="455" as="targetPoint" />
          </mxGeometry>
        </mxCell>
        <mxCell id="2ZRhY3xHpT4bSsx1_LrB-39" style="edgeStyle=orthogonalEdgeStyle;rounded=0;orthogonalLoop=1;jettySize=auto;html=1;entryX=0.5;entryY=0;entryDx=0;entryDy=0;" edge="1" parent="1" source="2ZRhY3xHpT4bSsx1_LrB-33" target="2ZRhY3xHpT4bSsx1_LrB-35">
          <mxGeometry relative="1" as="geometry" />
        </mxCell>
        <mxCell id="2ZRhY3xHpT4bSsx1_LrB-33" value="&lt;p style=&quot;margin:0px;margin-top:6px;text-align:center;&quot;&gt;&lt;b&gt;VideoDTO&lt;/b&gt;&lt;/p&gt;&lt;hr size=&quot;1&quot; style=&quot;border-style:solid;&quot;&gt;&lt;p style=&quot;margin:0px;margin-left:8px;&quot;&gt;+ id: String&lt;br&gt;+ description: String&lt;/p&gt;&lt;p style=&quot;margin:0px;margin-left:8px;&quot;&gt;+ title: String&lt;/p&gt;&lt;p style=&quot;margin:0px;margin-left:8px;&quot;&gt;+ userId: String&lt;/p&gt;&lt;p style=&quot;margin:0px;margin-left:8px;&quot;&gt;+ likes: Integer&lt;/p&gt;&lt;p style=&quot;margin:0px;margin-left:8px;&quot;&gt;+ disLikes: Integer&lt;/p&gt;&lt;p style=&quot;margin:0px;margin-left:8px;&quot;&gt;+ tags: List&amp;lt;String&amp;gt;&lt;/p&gt;&lt;p style=&quot;margin:0px;margin-left:8px;&quot;&gt;+ url: String&lt;/p&gt;&lt;p style=&quot;margin:0px;margin-left:8px;&quot;&gt;+ videoStatus: VideoStatus&lt;/p&gt;&lt;p style=&quot;margin:0px;margin-left:8px;&quot;&gt;+ viewCount: Integer&lt;/p&gt;&lt;p style=&quot;margin:0px;margin-left:8px;&quot;&gt;+ thumbnailUrl: String&lt;/p&gt;&lt;p style=&quot;margin:0px;margin-left:8px;&quot;&gt;+ comments: List&amp;lt;Comment&amp;gt;&lt;/p&gt;" style="align=left;overflow=fill;html=1;dropTarget=0;whiteSpace=wrap;" vertex="1" parent="1">
          <mxGeometry x="660" y="90" width="180" height="210" as="geometry" />
        </mxCell>
        <mxCell id="2ZRhY3xHpT4bSsx1_LrB-34" value="" style="shape=component;jettyWidth=8;jettyHeight=4;" vertex="1" parent="2ZRhY3xHpT4bSsx1_LrB-33">
          <mxGeometry x="1" width="20" height="20" relative="1" as="geometry">
            <mxPoint x="-24" y="4" as="offset" />
          </mxGeometry>
        </mxCell>
        <mxCell id="2ZRhY3xHpT4bSsx1_LrB-35" value="&lt;p style=&quot;margin:0px;margin-top:6px;text-align:center;&quot;&gt;&lt;b&gt;Comment&lt;/b&gt;&lt;/p&gt;&lt;hr size=&quot;1&quot; style=&quot;border-style:solid;&quot;&gt;&lt;p style=&quot;margin:0px;margin-left:8px;&quot;&gt;+ id: String&lt;br&gt;&lt;/p&gt;&lt;p style=&quot;margin:0px;margin-left:8px;&quot;&gt;+ text: String&lt;/p&gt;&lt;p style=&quot;margin:0px;margin-left:8px;&quot;&gt;+ author: String&amp;nbsp;&lt;/p&gt;&lt;p style=&quot;margin:0px;margin-left:8px;&quot;&gt;+ likeCount: Integer&lt;/p&gt;&lt;p style=&quot;margin:0px;margin-left:8px;&quot;&gt;+ disLikeCount: Integer&lt;/p&gt;" style="align=left;overflow=fill;html=1;dropTarget=0;whiteSpace=wrap;" vertex="1" parent="1">
          <mxGeometry x="660" y="375" width="180" height="115" as="geometry" />
        </mxCell>
        <mxCell id="2ZRhY3xHpT4bSsx1_LrB-36" value="" style="shape=component;jettyWidth=8;jettyHeight=4;" vertex="1" parent="2ZRhY3xHpT4bSsx1_LrB-35">
          <mxGeometry x="1" width="20" height="20" relative="1" as="geometry">
            <mxPoint x="-24" y="4" as="offset" />
          </mxGeometry>
        </mxCell>
        <mxCell id="2ZRhY3xHpT4bSsx1_LrB-37" value="&lt;p style=&quot;margin:0px;margin-top:6px;text-align:center;&quot;&gt;&lt;b&gt;User&lt;/b&gt;&lt;/p&gt;&lt;hr size=&quot;1&quot; style=&quot;border-style:solid;&quot;&gt;&lt;p style=&quot;margin:0px;margin-left:8px;&quot;&gt;+ id: String&lt;/p&gt;&lt;p style=&quot;margin:0px;margin-left:8px;&quot;&gt;+ firstName: String&lt;/p&gt;&lt;p style=&quot;margin:0px;margin-left:8px;&quot;&gt;+ lastName: String&lt;/p&gt;&lt;p style=&quot;margin:0px;margin-left:8px;&quot;&gt;+ fullName: String&lt;/p&gt;&lt;p style=&quot;margin:0px;margin-left:8px;&quot;&gt;+ picture: String&lt;/p&gt;&lt;p style=&quot;margin:0px;margin-left:8px;&quot;&gt;+ sub: String&lt;/p&gt;&lt;p style=&quot;margin:0px;margin-left:8px;&quot;&gt;+ subscribedToUsers: List&amp;lt;String&amp;gt;&lt;/p&gt;&lt;p style=&quot;margin:0px;margin-left:8px;&quot;&gt;+ subscribers: List&amp;lt;String&amp;gt;&lt;/p&gt;&lt;p style=&quot;margin:0px;margin-left:8px;&quot;&gt;+ videoHistory: List&amp;lt;String&amp;gt;&lt;/p&gt;&lt;p style=&quot;margin:0px;margin-left:8px;&quot;&gt;+ likedVideos: List&amp;lt;String&amp;gt;&lt;/p&gt;&lt;p style=&quot;margin:0px;margin-left:8px;&quot;&gt;+ disLikedVideos: List&amp;lt;String&amp;gt;&lt;/p&gt;" style="align=left;overflow=fill;html=1;dropTarget=0;whiteSpace=wrap;" vertex="1" parent="1">
          <mxGeometry x="950" y="90" width="200" height="210" as="geometry" />
        </mxCell>
        <mxCell id="2ZRhY3xHpT4bSsx1_LrB-38" value="" style="shape=component;jettyWidth=8;jettyHeight=4;" vertex="1" parent="2ZRhY3xHpT4bSsx1_LrB-37">
          <mxGeometry x="1" width="20" height="20" relative="1" as="geometry">
            <mxPoint x="-24" y="4" as="offset" />
          </mxGeometry>
        </mxCell>
        <mxCell id="2ZRhY3xHpT4bSsx1_LrB-40" value="" style="rounded=0;whiteSpace=wrap;html=1;" vertex="1" parent="1">
          <mxGeometry x="1212" y="50" width="540" height="580" as="geometry" />
        </mxCell>
        <mxCell id="2ZRhY3xHpT4bSsx1_LrB-41" value="Autho" style="shape=umlActor;verticalLabelPosition=bottom;verticalAlign=top;html=1;" vertex="1" parent="1">
          <mxGeometry x="1260" y="100" width="30" height="60" as="geometry" />
        </mxCell>
        <mxCell id="2ZRhY3xHpT4bSsx1_LrB-42" value="Rest API&lt;div&gt;Controller&lt;/div&gt;" style="rounded=1;whiteSpace=wrap;html=1;" vertex="1" parent="1">
          <mxGeometry x="1360" y="100" width="120" height="60" as="geometry" />
        </mxCell>
        <mxCell id="2ZRhY3xHpT4bSsx1_LrB-54" value="" style="edgeStyle=orthogonalEdgeStyle;rounded=0;orthogonalLoop=1;jettySize=auto;html=1;" edge="1" parent="1" source="2ZRhY3xHpT4bSsx1_LrB-43" target="2ZRhY3xHpT4bSsx1_LrB-53">
          <mxGeometry relative="1" as="geometry" />
        </mxCell>
        <mxCell id="2ZRhY3xHpT4bSsx1_LrB-43" value="Service" style="rounded=1;whiteSpace=wrap;html=1;" vertex="1" parent="1">
          <mxGeometry x="1520" y="100" width="120" height="60" as="geometry" />
        </mxCell>
        <mxCell id="2ZRhY3xHpT4bSsx1_LrB-47" value="" style="shape=image;verticalLabelPosition=bottom;labelBackgroundColor=default;verticalAlign=top;aspect=fixed;imageAspect=0;image=data:image/png,iVBORw0KGgoAAAANSUhEUgAAAlgAAAH0CAMAAADWjqPmAAAABGdBTUEAALGPC/xhBQAAAwBQTFRFTGlxABBuAC5tAC5vAC1uACJsADBvAjBwATBwAC1wAC9vAC9vADBvAC9vADBvATBvAC9vADBvACxvAC9vAS9vAC9vADBvADBvAC5uADBvAC9vADBvADBvAC9vAjBvADBvADBvAC1vADBvAC9vAC5vAjBvADBvAC5vADBwAC9vADBvADBuADBvACxvADBvAjBvAjBvAC5uAjBvADBwADBvADBvADBvADBvAjBvADBuAC9vACxvADFvAjBvAC9vADBvADBwAi5uAjBw/////5kAADBwADBuAjBuBTRy+/v9DDRqAzJw3+XtCDZzCDNsMFaLEDx4Cjh0DDl25+vxGUR99ff57/P39/n7kKbBFkF7O1+RKFCH/f3/XXukIUuDVHSfJU6Fl6vFvsrbDjt24IwNBjJs9pUDqrrQ8/X56I8KRmiXgZm5+fn7FEB6x9HfEDZo2+Lr8fP3/f3985MFztfjBDJu/ZcAHEZ+OF6PQWSVaYWruMXXNVqO09vn+fv9Q0tRGzpjZllDLkJb6+/0ssHU+5cCWXiiLVSJ5OnwxNDe6e3zusjZytThKD9df5e3lKjDH0mBhp27Ej554efvdpCy7fH1U1FLZYKpTW+bws3dUHCd04YTjaO/fJW15I4L1ogReZO0KlKH65EIbFtA1d3nSE5Qy4MW3IsPSWuZTU9OXlZGnK/IpHMn3ePsk2wve2I5iJ+8n7HJNkZXEzhmPklUrr3R+ZcCIT5htcPV4+fviGczgmQ3n3EqcIuvrnYjo7XLYH2njmowJD5gWVRIc42xmqzGGDpkobPLmm8sHjxi95UE7pEHg5u5YoCnz4UU75MGtnkfbomt19/pz9nl9/f7pbbNwn4bunwebIitV3ah/ZkA7/H1FjhmxYEZsngidV885evxr7/Tvn0cO0hVqHQmJEyD2YkQKFCFLFKJPmKT0dnlnXAqp7jNcl4+TGyby9Xj2d/pOFyPRGaVx4EYq3Yki6G9cF0+M0RZQGKTYlhEo7PLUnKdeGA6oXIpx4MYTnCdiatpJwAAAEJ0Uk5TAAMKShMH+ZGBDltU2nbtnETzGmaNfOXAK/U9zd5hocTqHvA4J6e7MtJPrNawIciUmC+G/eJr/LaItG8XJIo1ckCRp6hlnwAAIABJREFUeJztnQdYVEfb91HRiIq9BLuosaWoiUksiT5rAGFpUiJ4XYBYwUJTQQE1olEjgiIioGJXsAe7EhMFY4ntsetriQ2JLVZifGKu79u+M+fMnLJ72uL8rvdNnrBnz5k5898p99z3PXZ2BAKBQCAQCAQCgUAgEAgEAoFAIBAIBAKBQCAQCAQCgUAgEAgEAoFAIBAIBAKBQCAQCAQCgUAgEAgEAoFAIBAIBAKBQCAQCAQCgUAgEAgEAoFAIBAIBAKBQCAQCAQCgUAgvMt81K9KzRoNejg2cuzRomaVtn3kLg/B1rGv0uu9nrVUNOo1b9K1R9PKchePYIs4dPpPR7qkIGp17vG+3MUk2BRNGzZTs6jKgHPPvr3lLi3BNmjb8DNuojLSqoe93GUmKJ1ufFWl54OachecoGRqtrJEVTpad28jd+kJysS+UWOLZaWjZwe5q0BQHh91tU5VOjqTVSIBwv4TAWSlpT0xnxJMOFSvJ5CuNHQnhlOCnl6thZOVhsZkhUjQ8NHHgspKSxMyHhIaCDgKmnDqIXe1CPLS+wsRZKWlFbFqvctUqS2SrjSdVgu5K0eQje6iyUpLe7mrR5AHhw9E1ZVK1fEjuatIkIFuzUXWlUrlXEXuShIkpyZHhyvr6Ct3NQkS00gKWWn4RO6KEiSF17S99QcNHXu1qNGpX5UaPRy/bN+Kl8fWh1XlritBOv7DVRbN2/eti3AP7Vaje0+OhlV1K7J3+M5Qh5MkmjWsyejOXrchIoAHwQdSVYsgM+05qKH2J9043KlDQy771x+KXiOCEuDgevUFdweFKh+y366liLUhKIVerDrozKWzMtPnEye2OzYUqS4E5dBJYFlpse/OJi3i7VDR6cAigSb8ZaWl93ssyuokcD0IyqINcyCOFc6fHzVhvLPT1wLWgqA4mjG2fiOrjJnMk7fWJBK/AtOQqek7WutQ3I4xi8gXgtSAoESqMDW8ELt6jMIlE/iKSn1nfKvXFsbDpS6TwbSdII8gKA6GxAxd6gv0jN4Ms7iOAj2DoCyq45v8YwfBnlK1M/4x1QV7CkE5fIRv8CaCOiAwuOSQ1A4VELyHe2eBn+SIdU5tJvCTCPKDXxEKrSs7O7wZnrgqVziwoRNiuEthHb6chFokEBQC1sf9Y1EcPHviHldHjKcRZKM+rqE7CrceBKmMNcKT+XuFAjfrqSfW0NQbt9vdU6QHEuSgN67/EM+bpRvukf1EeyRBcr7CNLKYUX89MM9s3MVZ80+n1s07fvxBy6/61ugnzmBMkAAHjHdfF1Fj/rATeCrN3qtJTiCwSXC2cHF3he35ZPeu1bUFSSFiazhgYkvF3rpjda+n0PgTsmS0KTCznc9EfzDnwdBEK5KuzYbAZK8VP76BYd8bi/NXxIfZRngf3YJSGJQYPHUYaEmSLtsEGH9hKebKDhbmOO1MnE1tAGd0tyDJsx0tE5ameCTrstKpiW45aYYbB7SqOeD0FbFtKRu0q7DwTlhorMgcWJusEBUN2ogllcXI3nJhqVQfE7uWcmmLbDLpkqFxS/KGo4Fk5STwBD0W1ZDs+R2sEpbqQzLTUijIYMJ6EmactfyYaR2fNZWuqATuVEa2lpQOwi2sE5ZK5ShhYQlcQW8E95OwBA7WCovkilciSLN7Y0mLwCWXLjMkO67yQIapSptslq/3DIJWxMuUN5V79+nQr0rNFr0aOfZoUbNKv/d7VxLy9khnO+nWhDoEOBRRsKQl7wD2TVt079ylGuIt1u7SpGWjGk2FeJdo+6TErdSV8vjWzTs26cjHvVRDLWJ2YKdyry+6tK7m6qpSubqo3FQuuJfp9HGdXnWtc0JoimwkgerBuxCNezZs0NSkEPt2TVs0/IKrwLoQZTHSxrGVsyv1pbnixaVSfdbSCm/wBqg7Sr7Kaq7R1IeNqqCl4dC0O2OKSSMdibJwONTs2hqrIDcGbamav1fXspkX8hQKyTd3q2A0ZaJPXw5mVJGCtm0d+xY9q7kwiUc7LjLg1LkFj59s/bY1+37ZtX1PZOZGRdqy27CfxNJE7jIqj6o1PvhcxSwrLSxXVPuiBfuPtn5dx5bMSbdVCh1T7LuzLR/JySkwHT5xVmknUgJQrXNNpjGx7QccTuNylqzifKnsyHIIouXnG1Q8HHropqbs3ZUe5vFQS2NHhm6rLofTT1tJV3ne9G7JeFS1E3HQMtC2JevJWFTYFej0CcMykT0wRtmHvDXtwlT2z8gEXksHY8Qmx+5KD5cx88MO2If2wScb1fOehG/AEhgDMMi2oZ1dO6O3Oddh0Aj9chc90BvGjwo1mSdaX0r4Dizia6bxXOLtKOXRpuWnWJ2w4gL8LzewB3MFzF2dsdKyZ+y0lJ9tnan8zu92oLT9e+ZNQAuEZfiOixvyM9MN62BnHH0Z7t1IyhdhIQzBPe/yYU+VuwPLZovMDFrtuOG/aVw7tsYa0bvhT5i3iZTYDL427+xgWKkBOMexpL/SSgfZWQGfG/7dCjceVm6J+6ptnMKFV5azQg28YlMX6isEMYsiMfRanzfEBUbUwHzRFoZCDXWxNVf86kMMKv8HegeW9lecrjJMtpr3w5SlA3p1qPzJu55+OBOg0zs4f+9AmdpYPMHiRUvM4NAGOdGymR88djTsKnfJpKZSdYpDKMtECQ0fMRqubY3ZRHNAnQCudAOpGew5Yu9YutI2mNR5/ODXXxlV+B5mbxoxhbehaCrU70JLe7kLJik1aFvzlgyEfMdB4/UfYxzZ6RYhGzrOxh53tNQ7lD2rKr1vsGTmzl+Lxm/UrosuGG3rTdmb0DC48y3eHc8se4RznVV7OdwxaRFjR6DOVGxqHMGY4JXrUyYwHXhGM7FpxLJvtUdPtCjhV7blIIDxhn1H8htVQYUH8u99LLWmmhafrdB2BzjI3bY22zA5nzvKXS5JaPEpqu68hWWhNRX8ZnP0QhxKFyld0jVBwARZKDIiRGCsyLOJlocV36yN9gAE+ywluyYj6I32g7ehta2lUCPIrZaJBZgfVq8tspAOnboa3ec+lvj9WAv6d1vhp++V0FmJLTdIWYb5204Ys4NmutJX50Bna9MTzBlTVeQul7hU+tAqPSClYeW3qzG88spVPmneRbq3Iwzo+BBbMsfxpzJb5IIlyrDy++pqzOF3Nme1RqfMqSd3scSkspWZW5HCsP77n1ewYQIdbCj+6WWywaQr8Tz8MIDKqtZP7lcjKBifv+Yf1GlUAx8HZ7vgdcXfXcYiBxsISMlOX8v9cgQFtxetq2qT7p0qmLMybn6l8+yU1NpAx7lCBaN/xVbdjx0rkIvWl+g6uui7DumFBT+xdUXK2ok+twWmWaMKoi1crAKymaWAMqvrUpHSHHDLj9uyIpyf2Ra17wyFMPNBDBk2ETT9srxgY9kodLb5uXxvDomopIaqTptyvGKG+7kpPW2716qEdG8HByNeyzyRxk1bCfRi5yMete5qy2tElC8HnA1GCcJSYbcNbQ4+A4RTIwkPNxOWGghTsPWWKGuh22Rb2/KPF4Lf1lktGzW29EHE6FJbVXLLO/KRNubUh4c9pzKEk026LldFZDOkDWZ8hCWiacJGEjWwgjwJgYnONmhtQRxzTJeGQoT1Kdrvz+bApwjB0dzmhsMq9ErIvH9jBFWMWjY7kYXgsyw04NxP7kLzw4G+QJFhPoUEqe/ucr8wYbDgdahtK0Ub3Qhsra6EW0+ilPW5zQ0JSJgcHLDY0o+KPtgrpb/SgcgE2KxCbO3g8oMwYzv+y1VpIc9K0pWux6IdblEhjoHnultIobPc5eYKzbHf+nFMyJm/K/BPE04VwUzKfuIGGhtRVn2qT4MAqhB0SYk8rMB2BgQ83LehKdiGstqzV0RuUMc82bwzCXQIcb0mTZo0q8X5CHNb+FnRjlhW0gTLhKFQgMBsLfgZQZt6tZq0/6pvjX7tKhv/1Kdm9w+4nIFlA4ntqTl15N945kjFDZVqWp3l2E+VDTh5UJ0aFGJwR6GXvKmAtSqEyQFDtzos/Zazwr3hKwuTXU0aXKB/VfBzQhwaOTO+jC6V2e8hI9S0J4J0WKL1eoZJvOH+teR+eSLjUJ3x1F9FZ4quStkkFEYSUk3/K/xxyr0ZfQGV7ORBdQlS5IoQgX66ZWvJiyygB8NUS8E9diWLtkHlBdR+J4f67b6u26lGD8dGjj0a1KjZqW5bG/SFY6Qdw3nSyj3opaYoTS+ywcKV+SGNm3TtVdfm0hrhcfgC/yoUayQWLmORlLAoS0e9Vp+06FAx/AHtGmJrqVQjMSYttOLhmkmiWseWLSrC0PgetoYKtbhQHN0FshIoy8Ra7YsGtu8IgfWvaSx3yZA4wG4NQglCipWlC58HVfvA5rWFdRRQZMRSL0Rj2RTcS1yts+L31pjBzYYVeTIrw0JW8eg1xWf9WauvLU+3sIfRKdAFHne8GUtjKgQLbBpOLW042WQfZ3Slaitv6UtZa7DPWBQlLD185dWkn9xv3WJwNscWcheMSiVnvq2oLGFZmL3SdqWFWRoq7uwESvAzh98+p0aUTn28VoYAtiqtyp+h66O0ZQl/IxYnzUi3jW15wt1WSvYLwNMJXRuFRVZUgh33ubSPsoZCA4yFctFD/6COTRq20A7LTsry+OOf6kShYJTlAkf2uFKuq22LyaZocS96lOWWRsn6xWUE47IEkz4UA1VyZCSiyg36azMbtD30RL4BZSX8rWV9k8oO5KhshuFHAmmrq7LGEA6guyxFjYX1UU1kc2h6JjdNH6n5f3MFWPpMcISsZXNprpGJrRU1FloS3S3UwlEYXKhPQ4VLI78InNyqULcTLGgrqZLOkqZsl3OaGilIWC7oAnOVlvl/1lHejggjyGg9JdlILYnOUUykBXpuzqOAwPc79pG7KXiB9iZVjvGkPrJ8NgLWwGDRPerZ1NGtXyNro5xsAxQjrg3N3XG9FV9DB3C5DSTYMIPc1/lK7lKZ6M6vFWwA3r8NoH/rakNZIJBjoXKCKigRtoqZPbHAa7RjA+izmtiODyAicboGuUtlgksKJv6IPaJiRzvL9AbcrpbNBCI6IKuilKNnRZq7iyws3O0tfizwxdY2k+AbuRPdT+ZCGaH0p7YxEgquK4jatqKs/6BKr5QtdUeoVLahKwxWTbtATda2kf2dHqiKKGVZaGGCcTkR322itW0oC+nv9KHcpTIARqkJ11/JYA0T9JG2oaw2qKIrxd4AWNlswzYqXo5A8D9sQ1moaigkVVYlUZpLTIki7y1IXwsNsbVswZ6F2oeuLXeh9OgPysNujliIiMJCTbBEeZwtHAvcEVVwOQtUuV2/KjVrNOjlWF3rluxmG2OgDlRRRVrKVpezhbiBPDNMjq7W/usa1et80dEZLIcNqUqFLK1wuqLcSfm+Dh+iaiFt1vdKXzu2bMX5fJZ3FVi29RQ/gUemNJLQvNuuR2dn9IsUZxSR1itZvLspfgKP7LEk2uusWqUl9sQJ2xoFVfQCi20qVVhkMQ3Z5lj2LTo7qVEPFxXx9Eq5s/D9LbXoisvfAoPchRb9qfYNmnwq+JvngkQbjlL0t/WUff4RKiK0nriPrFrzQ+ppqTA2NwyqKGUWRb60myr7KHNUFT4T84Ed6jCe6aOyTV1BhZbKD0O5Rz7Y2fVBFVjEALAqyDkdiNCWdvjmIt5bdOiF7ydeQ1kL0je5lUgPq9qAPRWDuE0vgbAkWx5oaKykdAgwfVE1ECcWumrf1qiHsb49q1+/lEjc3SowGbEBpH20lxhPqsnpCC/rpydMTSu66KRWdTXFRlc4o4orQrrItuznUmsRoGGYbiHyrFpkWaFMrkrxyaSCPv9I8CidNp0tf3V8kWUolOShyLejtJyxBpAu70KbsSo50uMDtS3h6uqqctUuAgX1jZFFWK4qEbpDF82LcdG+IleVLrMWUli1lGnMQp5e2ETYZ7SlnlmCSu6je4lWN4X+TpZ8pDhoPzYX9M9PrciUDuiIUEHPHbeH82kztq0gPRfDcCqisKRxc0X99uop0c2hEbL4Qmab6QT5WblJcGCJ9HlrBZYVY8+NyAeoxC4L7bQinNXNAeyuOA51mCx4SkbQ2RXbzWjSaq28WRb6DAHhPPWbAqYrHn57LFk6g31GhyXmlf/6PzOFQWPOznpR5sv5EULCs7samPD8/2WvDNpkKvymZYsSQwpWDdN9yuVXRf2FKs9/Bn1soVBdayUguxXPiTlOWn6lg5dkjwnflTQvZu6F/mbcszIfDh0VtPJUwexxmFv6hj6fZMAnNHggaxHU4xJWGa5/HhrAQbJeCxN8TE8I8EJfE5AcdjajcG9UzLWppsKPnfHs6dBd81dmh70YwvGnActPSbk9daDz+Qnll2xv1dnz9P5N03B/jD68KTerP5ZBc5LGLFmFVM2wwWfnhxvIODtrUjDL831XLclON1w//2xIQShOisaC+s5ecirD+IRlIWWI6zWyCgmacA1X+qzzow4XlCX4DmApGvhUPUrKc60FbbUU6GDo981hzJZNbSnf8krIyUjdMvdaoDteWHHugTO23E4sQ9zt703+WdcMzPCfk5rI8vSC21v8Zxiuz/K/NSHoD+brB7zYNOeW8QvXsm6tpBdiYOmBpFtZF7Dld78QOzdmaMZoNs3rgIYApUSuG2iLLnJDQW7eyfqcacCvckDokvRRuc+uMYjK1DxznxYmltJ+9VeT4N5h1wPGUWdVxlzoWYFbDgYgLjO1rteCo5nQAwoLKJcOfHB413mG3tZQ+thzQ8Nf4IZzLE0FaTOhwJy1LEjeZ8COYflS3PirVAe8OPB4LbumTKrJPevjR7lXGCys/mtXLmB69NW91JuWP6eXz/w/F45+Bl/+P1hYXgkFy+ZxLP7c8JwELq8HmGgpKTW/nSM6kkGINWFV8yArgDldPS7kaQR3WWmIm7vMhzJ7HnwRvsR/72ymZ2Zsod5zbwj1GnCeMyR9Dnx5xiqoCgtCJvCoQhLtWSzUU9D5Au0wZRTAOupgPkpFAMuhV+iYp7EcxkBQWGNjjs4eBt0ldD58yaAZg5ke+ksg9Z5TVsJXwDVLnkmZkx+AhrPZi+Z9y6MKM4KGcYpfMpdBOWeiVMYMhK2tv3Ubs5uo9bpyU407lTuVvS0ouM8JnwyNhn55M+LgS0Lwk+SBC5Jod8yaD/WBFHvT6Myx4MUXYsKAWZ5fWca8QXG0OzIwcxW7PQRCOVlCcH4sjlbfuYPZT1SQnY4Fm2jDEhdlRZT7QLcJiaLIM8MH80CVKvjPKPodRwUAvQilZn6z4GuzRj0wf+hVtpJvDXKXLOT0bszFUEo+4gaYkjr1tvbOTc3LQWF20Epn3uLZLDriYvKg27zYdAG+4PFo7CMXHEYsFfYmm7osmnl8yEr42jkZgHUiIOTWIJ6Fn3AWtQZFYHrFjYRQhfVgDlcVwIe6rdC6Ug3Z68+zWfQEJv0D/uxLr1Bmz09DsPOYsvBM+v2iQoyzNnrFXvwKX/vsH/M4OzBk71Re46CG8wc4CstUFmXkymvnjClmbWtdMDqwxQzyByWsbzNjHj79IUlD1NOHazPRCy7PwiGAdHxH34LHQv/DWBN3cirC4HQuQz8fR/1eTqVCl174wbwo9fIJp5d/albMhNykpNuFhYUX9yYlpc5b65kFTtK4C8uEErLP9MZm4rA2iqKbs/leQm35Q8KKmxpxbe4cz9RN5YsSr06aNOlBSOLhMZtyM/2vXaC33pzRoBG0bN638OflODukevI+xHJh7q4AbLUy4B5uTqFZF8GLJsD3iXOP9T+3t/xKzuBJQzSf+yZPmvR3dnr43ilzZsSOjeMtLGN5RAmA4UcbbHCftbs57cRIcgUJ60JmaviBJclloQsCgsf5+fkNGxcckBC66sGVXynNp23BiIxk4D6hRz3hz48+x3RZ40KyEGPX1CkLMMO72q8QnkRFJZoG4YHJuZT+dKr/4yuTyxYELPTzG6j7sqYWwQmhZclh6aNiAnkLy1ikLwTRhjV0w0f3WWkNqQ/cWTjXN5OwxmbmHs07+OekUvqKySt0UkjQFOqIODUXNDQGX6GYvpNC0C4IqlXpyLF139++aKeWgbNnwlfefmCyFpQepkzXZqQefhGqtYRQ39CAcasmh+SNmhLbn/uqUIuhy6omt420Lj53UDPr7lyVW4QXX0pH7dO86oh9E2aWJz7A2578ytKjKHqIy8oDbFl+yTNhG+XDDOq+j4G/C+njqoa52aHo68dd/QG68EJ4gqkv/HsmNF1zD5yZPU73IVqjwaPzLuauPR+Eco7AYVCozOE61RlMulbO/0DTmIBeoAvCYzQtEvP4IOPmnoZheTFULYQPMXyme/nhsDndf9Qw9I2WJI2l3khL1hgf9MtLSIetE/7p5s/C9sGW08x//MwFQhLwd17iA+yneIRxHrCQ3kw+UlbaRsGDb4T0AR/os2hT+anJqzC+c2bUQxL9KV3N3n8Mn+nGi5XnoA/HRiWgJ1mJMcjtl4hRGMvXkMfwui/VPAIHHIZN7p4Zq9g2a7x8FyRY4gorp7tfA6bkCVY69dQFE6kJGlww0OfF4AQ2VWkZ4PN4H6yFCYvAz2dRNmrODUbOZPzSY5F2p0EPZyEfq/aJgrvCcvM2pE859Il71AvtI8WJFqreq0XNKl/LkCakH2Z70IB17jJ9nEV5WfwYl5ML9zVzwsGPk4NgpXhmlyJuoi4F9qvdAdtmXMQBpLz9RkPz8zh3YBdydCH0xIhdviLICraANG7StVdbCWfy7/dkLp11nu5VmUUrEZp1P+xk4J4EfrzwACws/6BkxE0GFIwClOBvVmpcXAbST2pBIjQSTo2dbB7twnZBT8yc7ydN1OznHeu0kCRfSB9kVhkAK80gUFSqfAHH6kUPYe38EAx0MupZ8Ew6NhU1afLKHmq+ZMIvscAXNqGEqOkIoYXf3KHA7vas21Bxzq/ELES5YQqGdoXfMeaFN+9aU+Rg1rpsslI1s25orgnX38L3JgA5cEP2nwe5ZU2GvabG7puFmEn7/TjFfMmu7CnA/GnmP/TLNc8cCpk5zo0BrBIUYU1YxNMdBoSaltn83/g1eLUPGljtVoCjW/fPsM810ty6p7eDHNzlzJCwijKNOj85GChR2SLK5P4KogPxHWUe2eI2DX4MuIY+PYB65il/cGIXF/UnsFVEEdYznOmMDaQjrmluxWzcaVJT8IjWNk0dezpzKHZt6ybulAmWnEfsLkyHlfMwJwAoUXABxdJVvop2hwEJ88wbhTNOLsgD+q9bQYhHjsuDnBcGjfIFukGKsGYcxZjOWGA5Z9pFqzwXvBf4Z44MQ6JDo+o8+KR9z1bYrWYaba3SlV1DPu9IXAYcgO1GzxJBa/nAIVGwoesifZI17gFg7Tp/ZVxYrvk/A0ctpFu+fGCn5znLwA8pwrqQOtuCLospiFzbWQGSwkX6OjXEj0l9kAfACYGVJ0lR4l7lzRUEj0v9PcdA8X1+F+GYh9xs2g1Ks4G96l1h8D7gUIQuKAu/qCvgh0seQx/2P3eWbf+ADvNAR1MdRoVOX9ljWxCdG8ZqrNxkqkpxlpD3sPmweVCfpBOWuWUGroQ3oj3TaTfwyQAcVsMnqxeC4T1ROXRXm0WwGzPsmDqYEsMRO4/3bg3b7hjn9+3UHbtC+1oEtxSnftbpyu5L4ctkBWFRdGGZGVAAdy+Bv/pR14XQyvFwmWrAsrnm/16bR+9wfoXdF2BbVyhlzuceW7hkoNAnCHEeIxpj04e0EdwOWc/K+RUti6nMWfOYhaUODYJd+G7/QV3/L4kx3SBubNhCleowYBrb95g621f7zQSNDe63EiHr/LBsavT2lv+FDbHKmIUA0alh+rEPcFZTe9aDHfjRuIOVuqId8iRzdiuEsCCpH54BNXPUKcrYNiDb/OEFf+2mXxgQFB27lhoP7VcGDa4RSZTQ+gJarG3Ew8PJwQL3WggZ4WbxjhjbQ6U66C9YRjOrrWe0cB/l9VhQicKGQq18bhlll6Z0jPlD/yStDf15uPkvcWMLKNuFCbMgl5ks6i6RTzk1xihu0Nzc8kkc/RdEeJsdcdmEkImOLaO91XuVDs7ClUYQmIdClerBJqiV/ZOGUD4Hdo1jyrWb1Al54BeouUFWnYQcnv2zKZOw4CVT6D4419aO+vHUc1Y/IF7QJYgTZbUvMc1eQ6CT/pwaWCsrO7uuXGsjMAN8xwXrWQhPWNiEVboIauILMcmwZQp0rXkaolWR10EwwD+dEuY6OAncKBy79gE8Z3MZUPoLMizyWlTQlZznoQi7GPhtfi+F89drfS2msjoKEDDUjXtlhGWcz4PJep7D/sJswhr4J9zAsQWwT9ZZIChjqD5nTc5DYLuQmp7oTygnQ9Ze+HGaCadvCGBhhcmceSWZ0bed38vk3mepPsXEtwqhrP8I4bKDPFBaTLwS/j6YHj4zNffphPN6JkQNHfp42cmz/wzWpSClCwue2Kqfn4eiwCIOwFIon2H+bKbeFvHgItAp5Z6CLg9OdAct/WvHQFM2bcOqgzMoiWhMXJgR83Rm0IHBnDKtCUxPtE3LamXVEsT1nt5hidpj+ZWOTjxZmDTBM4Iybcl6NiV316ZleYlho9OnQJFYtB5LVbYJmhQFzgctlupxR82ONdc26f/ocxIYzObAgfurTkIFyQWDr43r44JChowgsTG5m/JCRguUl5f69hmMp13Q+8PWzeCd+wqz300/10I8Xal9Q18cYEnjEPt0Zi7jlo6GgFNQBOLY1KtA6f0mAbaFKQYNLQgBc3rMhyZRo38Bb+Y+qtQ8ITc1qu/op98yxtgHbpm58s9VC8ZRJ/PinljljO5brNj4/bQOfteIF4jkuOLt54z787FnxFjmJAhx7mOnxsHBCzRhDRwChcO7Z54FPgzOBvZnkgwu7sN8QIvCKCil20Eo8GvGMpN5CmzRhQ9ykfFkQLEj5j4sPDiES1pbFnjRFCOxAAAgAElEQVSIsRp6j5jF0xhP+27CyMrOjm6sFU1XAwt+HJrJN2cLUlhqv0JwHRcXeNI4CmnaJCEDcJI5ahgkBwTkArP3pBxwGboSmj+ZN6ChFzFgXMiuCyx5QdwjtvxwMX00OEUTpPdnsFerqyGT7FW2KDzU6RPhPKH7UW8u2mnOA0PDLiLyv1gkLJUqHY4C22QIyNIWvnQXIBTTrp/fUcA/cN5Z8zRK7RsEid24ZKS9h+Crt7fQcgTSuBBz8fBo6/d7uHgt6/kcGfpuz+4YSqVxdYEGQR2UPpPDOTkWog49+NCC3gonrBDY+D7zT+3Ypm+AP8xh+nHupjFyYDowLdsSZF7Eec0GXR/i4lbqra2IXmLY4KNbBsWxZzOakZq4yjjUCvM+mX/sSFMmrcdgxrlOXUFdVNuIFkhIxWeMZyDfDFNGYaXThTUbdmWZd2Cgsfx+L2aYpv5AFKEXmEM5IslsW/e7Cs7X3CPCvHDvQu0Xmj2KuphF4B6b+figQVmWCwssAcveLbLP6s78HRDnzkIe6UV9umhjoJaBs9PpmWQ4CwvRYy1cCS3/PYNMg0/CKfOOccRMkyl0QDKwz+M+Idm0LhyXAQYFxT7VTsqwDVmac/J2DMvqQ8u+vWfLBJjFGzHLU9tItJb6FKWsStymWc49+3YQ/oCoSmbfMFEdGrxK885brCuksFQHPcGuI+J2sNrw9n0yzBOha8smmb4wLgMQREyYaSwM2Av4avXPnP8HY9etXvhneeraOWA8GZJBWw6wxuGzAk+0wGkKJXTsU9R5KR8x589zqvVBV8camH0ha6nJ+GjhCAibg0zRYYWwRo+CXFmiZhu7oL9/MU/l5oJh0gf8zcLKPGzat14A2VqnzApg7bkTZoVz6H63/KgNyBBkGHBRoTQKdgWfo8ayuphYCscWndr2ETdY0WhrENkTeeCsJMT8au6E2xkHDi4xEnZw5Zj5o5Lm0ZMTI4U1O28GeM3Dq0aPhX+AzMr7/gaM4bOAD+b+avSMWTgaMjb8wGEE80rweXEqY9RT5ulWxA/a5LZWvlkXF4bllCsgLSeBTuUShnbG0ltXezYG+ITTrNax53b9mJgzO8AcSTXAt3TV84Kr2YuWbcrNYrG8awjOgQSx5aThmgGJc03PCpwAJjAd/dhs4Yz9wejVXnoAHAmzLnIL7VL7zi7IznicG5OF74mvpb7wFXk/H2i5z4S0FViLfuouui+D3xVqxvW42Hnz/8Zu2yYcYNsr1OC16hzooDx3l6ELGgc4qN+6DTpeJS8zT77G+l81SC45HNzPfpjHxwKVnB0+9Jx/LG4XccaY2QJMXZmbx/xpKwWd0aozoonuhjwgYRclI23/C0dzGBx7B8xCROnQCIDSkQbGvND/GfQVfZgB+iwnJJqn3HHuBwwm0hegRb7/3iV8HPe8fIMTJmUffYiZyk/NTPQT4FfL3EDmT9+TW04mMGdoCk3wP08pk5F9hTmMeV/Z/LF0LDwM9oPusVf1fc0SIM3M0BBwYPPLAfe2Txpm72G3wML9WsZ3KTesdPKsReFDUYuTuLHzkQlI+MI8TzMrSzFHaUoU/Dx7PmUnZ+6uB8xpXzkJa+ALOEB5kd5Z8ADgkjdqEuTF8Bw8vKtQv4k47AqohGt5FuX7WOgTErT3YRY9/XfuWQmcJk3KchLkMEEBaC2Nr+iLtZBhIC6OfrgbBU7CUif8CnWEhZN1fw4yryrjNiVA/c8fR4H5viEVJJStb2oU36PgTIVRhSam3qL1Wlmj1BIEPJkasYvcSZf1NJVGV74h8LI8LnAlJnGxCU7CUnmlQ45dQ/W7NzMB82gGPGEKBfOXntOfMAfF1l/Y9MLiag5MSD5MO25s6lChgi0Yh0NTMyrjLM33pBEWJfKh/6AJS9hMRdyEpYId0bdoU5X6hQITrylX4Ouh88C+1Z8wtxI0dUYkDkE8hjNDQm5TfRjPTw4WyEbI1FTmRyhimtVcmrjU53Bq2P6xhfTzcynMeshublBpzx4Hrwos1yglIAfY+NsbBl8/cEgSYBh4HKDRt3o+kCHS3f+FZQmKjIzLSaIsEM9lLxDsx8twI9NHVp+jJABtJArGyaGctzs3kTVXy1l3Fg9SPQsOg1fF/a9sgKosDzDcz59E+YL6ImBa2DvYT6X2nQk8KfYHeqYtfngdhA966r8lvUyKn6+5JbvKLSs7uxYSpZQJoRz5fSuMLaDFizJ44oTld3UGuBDbm+On8ikEBqNFNAUHAetTbWC+bzI4mnrO55+eiEJZOexlOvdxsoAbZvgbmZUl0q4yD9pLlKDhCnyUSP/MwWzG7YQMbsJSPcgF05HOW7RQ9SDKNBbFjQ2hPQg0fWkD8xOgoIwJIbijxDjjdSoGWhpey30g5EwWeyfzBx1lN8AznUMgJCun9IfwZO0WBhdSvoET1h/loIVsy6ZgVY459HRqVgHtC+AaUBuYP6QcGDnjUvke4oxg9G1olnUtV5uSRMA5B/utrEvJbj3vS5X4g7+wTlHCjrHCSggBQ28iohLA0NOsXPoR98nLzJdP3Tdb5ZM0AxBBofW6Ug3eBOV0FlxY7DjLvBvdQy5hZfowm3bUfssolnqssPxKc4FJlnvM88E/As+Z/wftC8Hg6QOxOcGTY4Dl5/k8xCP4MikcFtZQrYFf0FeNnmgB8xqZ9wwFztGFhyqsOS+YA4b9fPZSLNiZ5XSJGHgMNqP/1VNA6Ok51OpzFnDCTsTZSbPAcWtXGP163gwuhDbcZ9zW2laE/Q0j7wbI7XN5DwAW/txnDFRh+V9lPnh0SBD1YDl96yA5CUaBZY0pB2J3nj5ACLgAML0GlidmgJ4NGbOtrqt2jgXtX+k7W6GXSSxC/VBOXVUSuK54qOaGGYiYG4CAWTHU9HnfRmGTyc4C7Uaxj5PMmhybugBh4H9+1NxHDdo1H3D9iwtMtM46qsNl1lrIthuzSGvLlzpVsLWZQ62BlsRPNP48CsskYu/fDFcvnDWqP5VBc3JwziyzwQXk2IdbzJqcW4jSyZBFM0xXuK/94al5ihY4JUeAyiakQxmR+k8JQx4JZTXMfZacR0t3ZiyZkLwI7w/h7o87xlk7cX/wGBVsfAo3LfM7CR0ZB0zOpqSjzGXBS24Bl881ezH3n/E/qp3e/JBxwb6c8o26qpfArjzuUasE6AZR0JQF/UGwBAz8aS5OfRH8QUlmHef+ow/u2uAXqTNQfr7l2G9c2QIeGQd8NzcbZTxQl3mClwNbR55nsT4XOenzr3DIf+WmUvtumgGV+9ou7W9InJHQheE/28snrM9FqSwK34NUmZxPx/z+kxelZiEjX/YiT+zSUvAYE7c/6gXShyIhNQt9/RTchoBXQvjaLROSfs1+zqwtF8169se1lKPQxzB+xTrgJQEcZ/iRXLqqLGKFqRT4U9p+UG7OAvpo6DvkxUlq0IWRZ9iT3P5YRJ3qG5gfihRv8K+0w8x1RKTiJkPDfHRLzayh5dmTfRJw21EuqoGhBWO2UAqz6x+ViOZRqCeEn/KJXML6SKzKIki+PZfSioHnskuhTkvt5TfswRjactBMYSnGh8u34Bpq7Ixzp5+Dor9+5VPkA2LKcf3RwgfGjYDYKYUhPr5+A71oZVEP8Fq46nAupfxxY9O1NxVvT9YF879VqnoynCqto65olaUTeuAZpRXdI9YeTQSmtX5lOXkXf9gSiA8AjTqA8ZIf4PMMNdt3P5eIulozXIXR3Dx15Ibg1ge+JmG5R9yakjsz6MqfyRS/UK+AwSE/pp77llL+iFRdzI+Ym/243lCNPRdFZFqIWFkqfslD6bnw/H/YlJ54MKxg9KyQxMMnf937EJxcDbp2jTJ6zk0qwywloWxYJsbOXIK41lUbjvgL4vL+/R/Pxi1VzT2WTlyBnlEzC5edzMs+ePBgweTJk8MOnrqSt+zi0Ge06MKxMWd1Af6i7p0ZVUt9SCuZhFVdzMpS8Qvy7I/gWsy8vf87OjTqnD/llx6XmRtF9fGdgwsYC1iJSjcSuIy+A23IchSEmu0HLsP68vg+QKXiHrT26dOnv4SHhyc9neCJjiv0H+UzwPxcscDdXaZ9HUHPXGFjwHNkLxHnPnXshQtTp7pTc5kFHp18iuKJ2f/bcLpSdPhNRo1tEYml6MtVqkUolT88i7uc0mOZC69h0IULF8Zq/o2OhE6drB9dRd7td0E/pKE8wpI2t7tv4jx6zB0O94jwFwsTgijB04GpOegGUo8rRHRBsQXUKZPp28izAC7ize6GVSFvZp5aqF+fiL6h44J6Rmt5hCWZb4Oe5DFzuKaJDIw5qj1n4iDF7zT2MTYy6yQ9s+kgT8ohKMAv+sVR2uX0Q1AAvBLQ031mIqKyjRE/4nvqIp/QVBZhiXaCMBqv2bs82VMs9tduBT8MStDarMrSIefxqZ74yKyD9B5lbip8NdjZlY2hXR43NozJlecX9pS2lPvFRUwIMdnFJHABR3WK8rhl1UKUREz8fDb5szeIRkDzDuiXfwMLzoNT4sxRuFWhpgv6H+02z4IgXyxoEPU9Rbs84txgpq3ARL5jYVxgUmKAqcuUwqMSoazGsgiLf7JmK/GaHOTJOhqOnRIeYkzAv+DAQ+O8zD3wh5Mv8G7DC/Jo+dejsvHbL+oc2rDs+SujJ09ZyOM5nPpbAxFr5/9TKvTRvmzQ5StLvI5UkRRmvB78ep45c+fYOVE/TjKt+r1Kww3LtwuZqYt8GDKFe11dSxmrLuyaBFoPKO/8+e0Z8OXuUbOYtwGD/yx8msl2eoCBuEH7cn98DhkvpHECp4243eUQVj0ZjqlfmIjbCtQzN3wy2B7qIQZ/G8/wUP3fXbRN5EIvuU8GZZjNhPZ+qW88YAnFpzVwFPOJg5qyDBtd7sl44omJsfuCLE8AISjN5BDWpzKc+jwgtCBvKHXb0MCgOUkZIT7B0PjhN7o8d27ss8JsH/Mp9S5uLvSfpq/PsqHPjDvdF26dH7oIXOPR+guvgCuP124x9p5ZD+fN/5M17+iA4D9GZy8bmskmrsy9J5fMluOEOQSfyhBuX0meU5/9hsw6eXHoOUoiqVjPh3vDV4bNpi3MxvkcTM84MJnmdkDLmTpg8KwDeT8u0/FjXmIIlKAW0TeHFpw9nKG/fNnJxOzB3OJUg5NnrQy6mDrBE7nt7R6R+TRpU17YH4hFhlQvm/Ic9PlNouIgUU3pDFx1NeN21MNzMTGec27ti4l5tvZhUvjKAkEceNVaeF7Oc469cNU/i+bPfLr2WUzmHH8TczJjzk1IDT9QkIBeYsgkrC+lF5a9fAfVew0LTij1ybkacjijPP3g1SWDyxICxvnxPsUBMdWSArWX37iAhAUPloSsLF9m4sdFs174LAhYyL8aovKx9MKqLInZDo+XpnVK/5it0VSwn8XrcnhExPxQxKmmX3BC2Wwfn2TD/80eErBQ0NPsLQZ6C9Wkd8qSLvhLPHTv0E2ujlehwL+jDpILy04l31goFKZ3qO253JReH1lKhzwVTFyclN4QPJFnxsXn+XKUUIbZu7PK1pWFmDzRKyRKFVE35TCVk+F195ReWM3lqanI0GokWTfB5V1K877BpzSXXlgfS1dTacD4UYr2JMUC9Z3SLwt1R0Er/BUxgYswd2G+SmakML5BwpLe8b2lvqLi11MkaHMaY1VcGa8SArnXCSxAbVpXcmF9pX+wwl8SFoZpuhvjZaI8m/ZcS74vCtLbG3pJX0kBQRTb/CeZNnu4I2EBHSUXVidjJSWro8hA0eaySIvHq5TsrUvv9/6+VFUTA1S7cP2bMpBqo7az5MKqbHq2ct8+L1DLRHGqhr8r9+dJ9dJlsJCand6VPiWhwvXX7iK5sJT3KptIL6xW5qfL6kDDGx5qkb5iemWpva8f13B9hBxvFno/MqQG6Wp+ui25niigT8CZGyZ67DhyvDgtJSXl9c6S6W+mvym5+zolJS1tz5EdHiM43kRoZIin6AFVUgHtxQl+7SFphzFiR0rJ20M/3XyZP3z48OWRkcsjl2v+x/0bN7e+Lbl7XLqiQa+oi/TCaspQHMWCbw5k+UWqFP1XeGRnye+H7t28sTR/+eqR8d8AxI9fPXzpjcub90/fHi266ZaODLvQlSm1VLxZERGcw/oFUYpBIbp45+Lfj/13xepvGNgdeWPrxmIpgqPhOssgLHo+bmGl5TZR4NfoyigTKXssALW3x/Y194b/xiQqA78tfeMNfFOs3zFcZxmGQsM2NFwYAWu7I+W4h3B3Y5GVxHNEc1mKNz56OfzE7nh2XX0Tf+aOkC8EA+VFdJRBWMgzT1yEaqKd237a+mRdNG01ZBFiWaSsxHvPxv2Xh4/kICrDcBgNfFmkGlFmoTIEgOE3dbDJN/hQFPnNN/n3FqfsmGjtnVj6Kj2Ya8TSo7b5Jn6386+XZ7iqSgcoLHE6WepNZTCQ2tnVNj8f5S1gHVvjtSui5cfWebhacRdL36fouKjcPKb/d/xuXrqChSVJJyz9XqEdfEyT4LXcr/0tx+8efumnDUeEvjcdnBlCvMbzTju0nnEdyCosMX4NtPVXVzmEBU6yBG+BjZf0M9rdq+/9tW6PN/sXrEGIbWGeHClZiuyuTkRGnsH2Y7CwpOiyZEmRVV/MWh5Zkz9ev1b6vxOX/koRaBaPQYapfcqh5boueeTIM2dOrI6MjByu5/K9ny8t1ZneV58ZGR/PJCzBuyzt/SivopccwoIS3ArdNhOPl1w+oX+d8SOXX/4rxepJPB6GsosmubQirbBWr7hx+adDh55sLCl5vUfHd0eOfHdc8++7G58cuzGeWVgCFw51u06yCOtLsAhC/3y8j5e8Mk5C4le//OmvndcFfoIJGTos9Y6dv297+9f0jYs37Ly7PW3P8eOU0T76eNrOkqJLq5mEJeyGoSvwTxPyHIjZFFE84XDzLtlsNvKMXPFo+vbvRJlrMepKtM1edXQ0W20mHpl+B7DJx5+hCkvIXzO6olVlEZZdY+HqhSTt3+HA7zXyZgltk18A5LSdsj3bRWvOM/22ltIt74IV3pwhBfxra3l0ZfcJumyC4ZG27aX5xe5eveLm/nWCD4gsbSOu6wybqW36JXP9x7/0oG2fCv+rgOor1xFg4rvOvH57+Qwwgz2zdPPbdcX092sFsm/2UN0kXVWAaXfxz+bKn7iH2CvkWXxXN7b8FNB/yXbOKmUsFMFkd3zx5eWQXefE5d+nFe8QzGmX/T4SKM/FTW+Z1PzT+DTDv9f9ZK758iLUpIxP8VwQCSoY+8wGcgmroRW15IbaY/sxcKL1Tfzu8ct/2khdRFmKcpK8UNErHhRW/kakMc+i0B5Dp8g2EreVS1jtqCURvs9SR+/cdno8LK3hNzb/vm6PAAOiwsJARkSnpRUfMVrstI0ODoX3d06kbfDrxlHRlP+pTItCOyhWR48Io6F32u83l38D8/3SzdsWvz4iTRiLNF3WxB2vF6/Zv7/oyTTj+kTTn7wxT953v9T/lFxdXI0jGq+CWVALWY6m0FODVhgRmlo9YsPP46nbG9+MXLF1w3GPEZb3W7w9lUXEbYTHkZ2HdD3ziZvTTLsMLmuWmieXN3Vzd7SrK+vvmfsPHniAPAfL6ajqzFQwoXCL3v4kn+oQFz8ycsWlQxssNm3x6VtFl+COdUU370fq4ii+P7N/u+nvRSdM9V2x34Mhzo7ZCY7Pbwi4VIbctiao03dK0YTCI+0JbTjUamvFzf1r1hV7K2yuxA/v76ZN3//qtHn3ZvMGwydqj63mFfHlN8wLFnyvxa9rBi7uLaOw6n/Kq44Wo/Yo2ZxP3ZTVjYj5r35fJ6x/PAKxuqyJHkdSpq35dwUU8/VqseHTEWmbzX/9aTvbPjxy0uXK90dnvoccDu9m2iMLJ8b8pfjJCoyn0sjL27azfx8oHv+Hi6Ss6JTpr/Kp1Tk2zeAA67HhsvmvmpGQSzGhglryAzc/RRZnLBPdcOUTvCk80hb/S2sEHd9Hrrjz77bFHF1rODnBI75m0bcYGHFk2pqtd05Hjocrs3v4dOOyMPrJelMVV0zn7jhkMFJZViyzsGSzYumhWRxM1RO6LdTR04ouLf8eqa348Utvbl2z+O4eFo9AK7pSIX8pE6+nrJtetPklfd54Zv3+FONVR8y24d82TxPw8ZyoXUleYdVlKpzQQ+KRNzeX/4aLwosf//LQmxRtCg30oOGqjOwlE72jr6et2/ZqOKIG8WdeFpl+G+o9l429WfyZ34ulLqcs/u4gTRCFEm2yG53y9jQubjg+fuSZyBWvihYXi+UjL0S13K7vfLJ1/fLVqBCd788c2xBtGvKipy01/oZ2L58mqnM2in4y68rua0mr652ycXM+Pmwqfvfy05f/LZq+Lm2HGE+3cr074sjOjW+3/vwyfzyy8KsvbZsGxCQVPzF1apE/p1hXcO4Yfzyt5daV4TABdOnEwHva/svLmbMdrF6/uWj6tO1pR4S3cFk6uI+IPv565+I1xy7hQp/jR96/t+Y62Nfe3WyybZ2e/p0gpeeAsX7/kVtW+IWhaHjfPZb/G22Ph8LI/P/u31i8w8N7hHBxGC6mf6A/dkWuht0ment47Nm55t/TKEOcUVfjlxalwF9bfN+owe//K5Q7BzvG8r8vt6w01KEXT1RbuDpaMx4OZxFW/EhtZqlXOsu8YE82vHWEeswWJOpwOeL63ZKiny6vX7F8/Pf4Muf/uyENtvJGrzHpcGmRtxQpjPTF1/9Lxg1oM/ZOuOKJhfrItLc3h3OIUD+Tf+PVsaI1JdNSvhPYOO9iVJCrK1Vopl9VdPHdDW/eHtp8eWkk49j9W/6rt9OiKT3r9q2mz49JbmtQ9ZBbVDoa0Qsm+so+uuTY0tVooxaVkSvuHHu7cWda8Xc7rHGH4I6L1qRwPC1l3fRD99avZktSFH/i9DGEL/90o9n9+zNraPE5YlPPQW5N6ahKj9cRfV/YbcT1DY+4pT+Ij9/92/jxkUtv7n8zbY+VHRe3ZWF0yoY1W+9Enhk/cvf3bJPBb37bvBjlWbbVGKFz4uZO6XbZDR1CQ7klZYDRSioWE4/cXfPvUsY2A/l+fOSKG5dfbT70duPinWk7RLELeR9JmbZ4+rZj925eXn+ftavScf/VXzuP09cXI47fNIyeu1dMFyPsDYNewtXqy60oI8i9aPHfgodmqrWCX5Kpb86suPPzo/2/vynZMO1uSvF313nOi1FjvPeRI8Wvt0/bUDJ926HNN2/kc0n9qGN8/p2iDUiNRy827hMu35wm2ZLQSEu59WTCvja1bBJtn3ik7D89nlOuRQq7V7+8+Wj/9MXT9lyP9vDw8Pb2HjFxIvfEp26ai0dovqT5anR08YYN0/dvvbn0DK9yxH8/csWjDZhAyePGfcL4S2+knGHpmu3Tj+TWkxm6k7I02czcvL/b+eROJGMLYpp1/JnVkcPz7y89feneo0Pb1qxZ/Pr162IOj9S++4nX015vX/xmze+HHv378vTS/PzhkZH09DDMjF+/bd0e6lrQgDptqcGItbzI+qyGfFFOh2UH52HTIdmOr0fxhrevaK7LPPht9fL80y9fXn716tW/hzTsf7tGx8bF60BKpuv//FZzydZj9169unPp5en85cst6C613jE3ixanYPui70qMM7R/JTU1KK7DsrNzoOfnluRV6DrG7zZsvbyC22SZnfjx+ad13Pn5J5CbN/R/RjuF8eLM8JePSooZanX3kP6HMjJ/o2hZdlDo5u6K6rDs7LpVk/INUFEfeXOTZ0pPGXm5/y6z2aPkjr4y+U+KpXl/BrSdgZNiloQG+kr6CsBXocX7+N03W9ePFKjXEo/43+7fW7MuDTO30uMWXaTvfu8fK5YgubsZ3cuU/rxeNmhuDtJmI54YfXf6oZv30S4pCmHk8DvHfl93ncX+P3G7Looi/sSjdRK9O4DmMnuOInCoRSmjJLMs0CrtvWPd1vWRZzjbkaRl9/jVpzdv5LAn7r3mxjdat9EbJZL2V/oG6yezilC0o+5GS6Es6Blqj+tpJVtPyy0hNMNfPdl+BOc4DeLxk9Z+cubSuh3SRkxqRxiFzdwN1JT0PQCvA2DEkZTFTx695J1FXVxOLN38tuQutxmTx/ZLmqn76p83XJfMWUaPRsa1lbH7TOMrSlHlCV+YuGPak0eXlkZi4y6k5bfV9y9tLtqA2BFEE73zZfzu/HsbpXPCMuAib1g9I19I/C6wRL9+8ur+mZG7+VnDhSY+fvfI8fn/3baTjwv+xOOvIvMPpYn2anBodPWh3PrB4tCFXlpZmOhxPGXnm0OXImW1bsWvfnlszbTXe3idgODmnbKT46gpKC6q1vZy6wdPG+p2tIzBfBOvby/5/dDPp5n9N8Vi9+rTN7e+3bhTnCziwqNpqLpyq4eJDs70AsuIes+Gonsv85efkNJ2Gv/bieX31/8sYoijCLjIH6PKDFVZ4guL8QnqER4exRuKfl5hxTY1X367v/ntuu+ivb0ld0ywHBdVM+WZRmGkVxabid/7evH2aSXbHt3JF7vbih+54vKxtxunvS6W3tvFOlxqK22PkI70yuKCR9q6N0WPfr50On+1KJ3X+Mj7Ly/fO7Zt4zQZJt5W41Ktqdyy4cD7lBm8MpSlo3jDk60/r9ce22aR4ymK3SPHn1i9fPiNe/s37hQimbMsuNaUWzSc6EOJ2xFdWZz3u72jj+wpfr1uetGjy0tPsIuGC8Mv3dy6rWR7WvHx6x42NFmHUUYgITttPoPLLXaOYn63nxh9POXuhpLpf+1/dO+/L1fk4081xfPb6vyl2uMGi5682bBue9p1G5tSUZDtdBPe1KdaSkX2obFMuMU7N2x8u3/rz5cvrT+99H7+8OWrT5w5g5NZ/PgzZ05oz0JdcXr9y0v/vbdVo6mdtq4oPYqIqOeIAzXXnyKVpVLpJ0Uemh5s+raiQzfvXLp0CRObMX7pjUt3Nh8qKtq47vI4uqEAAAKtSURBVG5xtOmrFQBnucXCi6qI/EYiYuVYq544caK3AQ8Mxs/5xInZAp8rKnqCnUpdKRVQ0mEQBDPyHP1sDTXqUaogquOatJ7QFQcZjzaxmD4dqbUQs/WJsizhA7lFYhFVqcOhGOdWmO8t3q0rLM0qy60RC+nkTK2KMtJiE3TUUrALFgttPqbVhvmwKisgkuVJ6zZyy8MKKlWnB0mL1WsRZfGiXje5xWEd7ZrR60SUJT+tlZAb2Soq9aAaHrSIMo8nyuJMLVseB420oeU50sHzZGNOEGlxo5ntztshmiLGQx0ubm7C2uSJsrjQxFbtDHRqfMZeXUEgllJ2vpRbDUJStYFE0iJ9Fgut+8mtBYGp1IJISwE0kfMgcZGoVIOa7UgcbPpoe3Gp3UBuEYhDpZq0rWlRIJ0WmjoVZDWIom57+sFOwkP8vxB0+VruxhcXhxaoM3+FRrRNSVullmLzFAlIfUdqwIUYkF7LTJd3QVY63v+Slh5ecMR0ALMpOr4zstLxvmOrT0V+o6TT0qwEu9pCCL3A2Nfs/gXtlCdhebfn8U6dbS9eQjDqd6r+oajGU5d3dCb/8Zd1K86uoKXY123Q8MMu4h2eIvh+t6Jp/XHnLzspNA2yPFS2/+j9tnU71WjQt7oYfPnVVw0bvlfxaFjdsUGNuu0+alO/fm97+8pKz6NGIBAIBAKBQCAQCAQCgUAgEAgEAoFAIBAIBAKBQCAQCAQCgUAgEAgEAoFAIBAIBAKBQCAQCAQCgUAgEAgEAoFAIBAIBAKBQCAQCAQCgUAgEAgEAoFAIBAIBAKBQCAQCAQCgUAgEAgEAoFAIBAIBAKBQCAQCAQCgUAgEAgEAoFAIBAIBAKBQCAQCAQCgUAgEAgEAoFAIBAIBAKBQCAQCAQCgUAgEAgEAoFAEIn/D31s7328h+aTAAAAAElFTkSuQmCC;" vertex="1" parent="1">
          <mxGeometry x="1680" y="90" width="72" height="60" as="geometry" />
        </mxCell>
        <mxCell id="2ZRhY3xHpT4bSsx1_LrB-48" value="&lt;b&gt;AWS S3&lt;/b&gt;" style="text;html=1;align=center;verticalAlign=middle;resizable=0;points=[];autosize=1;strokeColor=none;fillColor=none;" vertex="1" parent="1">
          <mxGeometry x="1681" y="140" width="70" height="30" as="geometry" />
        </mxCell>
        <mxCell id="2ZRhY3xHpT4bSsx1_LrB-49" value="" style="endArrow=classic;html=1;rounded=0;exitX=0.5;exitY=0.5;exitDx=0;exitDy=0;exitPerimeter=0;entryX=0;entryY=0.5;entryDx=0;entryDy=0;" edge="1" parent="1" source="2ZRhY3xHpT4bSsx1_LrB-41" target="2ZRhY3xHpT4bSsx1_LrB-42">
          <mxGeometry width="50" height="50" relative="1" as="geometry">
            <mxPoint x="1540" y="370" as="sourcePoint" />
            <mxPoint x="1590" y="320" as="targetPoint" />
          </mxGeometry>
        </mxCell>
        <mxCell id="2ZRhY3xHpT4bSsx1_LrB-50" value="" style="endArrow=classic;html=1;rounded=0;exitX=1;exitY=0.5;exitDx=0;exitDy=0;" edge="1" parent="1" source="2ZRhY3xHpT4bSsx1_LrB-42" target="2ZRhY3xHpT4bSsx1_LrB-43">
          <mxGeometry width="50" height="50" relative="1" as="geometry">
            <mxPoint x="1310" y="120" as="sourcePoint" />
            <mxPoint x="1370" y="140" as="targetPoint" />
          </mxGeometry>
        </mxCell>
        <mxCell id="2ZRhY3xHpT4bSsx1_LrB-52" value="" style="endArrow=classic;html=1;rounded=0;exitX=1;exitY=0.5;exitDx=0;exitDy=0;entryX=0.006;entryY=0.617;entryDx=0;entryDy=0;entryPerimeter=0;" edge="1" parent="1" source="2ZRhY3xHpT4bSsx1_LrB-43" target="2ZRhY3xHpT4bSsx1_LrB-47">
          <mxGeometry width="50" height="50" relative="1" as="geometry">
            <mxPoint x="1490" y="140" as="sourcePoint" />
            <mxPoint x="1530" y="140" as="targetPoint" />
          </mxGeometry>
        </mxCell>
        <mxCell id="2ZRhY3xHpT4bSsx1_LrB-56" style="edgeStyle=orthogonalEdgeStyle;rounded=0;orthogonalLoop=1;jettySize=auto;html=1;entryX=0;entryY=0.5;entryDx=0;entryDy=0;" edge="1" parent="1" source="2ZRhY3xHpT4bSsx1_LrB-53" target="2ZRhY3xHpT4bSsx1_LrB-55">
          <mxGeometry relative="1" as="geometry" />
        </mxCell>
        <mxCell id="2ZRhY3xHpT4bSsx1_LrB-53" value="Repository" style="whiteSpace=wrap;html=1;rounded=1;" vertex="1" parent="1">
          <mxGeometry x="1520" y="240" width="120" height="60" as="geometry" />
        </mxCell>
        <mxCell id="2ZRhY3xHpT4bSsx1_LrB-55" value="" style="shape=image;verticalLabelPosition=bottom;labelBackgroundColor=default;verticalAlign=top;aspect=fixed;imageAspect=0;image=data:image/png,iVBORw0KGgoAAAANSUhEUgAAAMgAAADICAYAAACtWK6eAAAABHNCSVQICAgIfAhkiAAAAAlwSFlzAAALEwAACxMBAJqcGAAADW1JREFUeJzt3WuMnUUdx/EvLUtbsC13hBbB5VZAQMotqLAoIioGA2ojChqj3DQaNVGjQUAEE8SEBN8YNVFDDCAkRKgaSSFeEBGkgJrKpQgFK0i51tKydHePL/7P6dLN7pl5nmeeZ2bO+X2SSV902zP7nzPnPJd55gciIiIiIiIiIiIiIiIiIiIiIiIiIjJQZsfugEzaJnYH+sw2wJ7AYmARsBewB7Bb0XYEFgILgO2BecBcYAibGK+fHBPAZuBVYBOwEXgZWA+8CDwHrAP+C/wHWAv8u2gTzf2Kg0UTpJoFwGHAocAS4CBgP2BfYE68bgHwGvAksBp4GHgIWAU8iE0wKUETxO0NwLHAMUVbik2EHGv3BLASuBe4p2gbYnYodTkOctN2AEaAk4ETgbcC20btUXPGgAeA3wO3F39ujNojSdL+wJeBO4BRoDOgbRSbKF/CDhllgB0IXAz8jfhvzFTbg8BFwAEVayyZWQBcCNxN/Ddfbu3PwPlFDaXPHA78GDshjf1Gy71tAH5U1LTv9ftJ+inA17AT7raMAmuYvCfxNPBs0Z4HXsIut27A7m9swi7NjjN5/2IWdk9kO+xeyTxgPnYPZSGwC7B70fbC7rksBvah3cvMK4Ariz/7Ur9OkPcClwLHNfga67Bj9H9g9xoeAh7Dbth1GnzdXmZhE2Z/7P7MEuAtwBHArg2+7t3AJcBtDb6GBHAUdiWqicOKFcDlwOnYmzA3i4APAldgV6peIXydVgBHtvULib9dgB9ihykhBvpV7E30dewmYT/eBxnCvmG/QdjL2+PAD4Cd2/tVpJdl2HqkugP7PPAT4Azs7vmgmQ98CPgp8AL16/kMcGabv4BsbQHwc+ofOl0LnEp/fktUNQS8D6tv3UOxa7HJJy06HDshrjpo9wHnMZjfFGXNx+5/rKR6vR/FLhZIC86g2v2MCeBm4B3td7lvnIDVcILy9f8fdpFAGnQB5U/EJ4DrsKXpEsahwPWUnyhjwGci9HcgfJ7yn1q3o8uOTVpKtcvqn43R2X72Scp9Wq0FPhylp4NpGfZUY5lv9XOi9LQPjWBLMXyL/zPs0VZp107YFSvfcRpF54O17YH/PY4NwMfidFNe5xz8Lw0/gz2rLxUtx6/QaxiQ1aWZOBJbqOkzdr+M1MfsnYlfgf+JrTOStLwJ2zTCZwxPj9THbM3GduVwFXY1ts2OpGkR8C/c4/gI2g+slLNxF/VF7LFZSdsS7BkY13ieFauDOfoT7oJqIVw+luEezz9E611mhnEX86ZovZOqbqb3mE5g+42Jw4X0LuQY9sSc5OVAbOx6je150Xo3g1mxOzAN182j5djJueTlEeA3jp85oY2OlJHiBDnE8fc3ttILaYJr7FxjL9iu5b2+hrXjX74OoPfYrovXtXy41l3F3j1dqptL77Edjde16aV4iDUUuwMSzXaxOzBVihPEZXHsDkhle8fuQFk5TpDjY3dAKntb7A70A9dNwlvidU1q+hXu8RUHVwHHscgzycsh+O0nIA6uAnbQMwQ58vn20ATx4FPEDnp6MCefwH9cxcG3kOvRZmQ5OIJy+5iJg28hO1jc8T5xuike3gw8RbkxFYcyxewAj6PVvSk6CNsroOx4ikPZgnawnU/eHqOzMq0TsXVVVcZSHKoUtYOt4fpChP7K1r5IuX3MNEFKqlrYbltOnglQuVsE/Jr64ycOdQvcwTZ0uJA8l9LkZjbwOfw2ZtAECSBEkbttJfDudrs/UN4DPEDYMRMHn3ONskVfgZ04Shgj2M75ZcfBJwdRHFwFfCeWJ1jl0+lObLsgHXqVNxvLMLyTarV/DjjJ4+fEwaeAw8D9Hj87U1sDXIR2ZfSxCPgm1e5pdNt9TG7powlSk28B5wDXUC0OrNvGgN9iOzkuaPbXyspCbP3UbdSL1p4Armbrx6Q1QWoqW8CT8dv/1dVexVYJfxp4YyO/Wdr2BM4FbiVMZvpj2CHVVJogNVUp4PbAd7A3ed2B7X7yrQSuBE6hP9Nw52Px11dhV6LqfBNP/aD5NjBvhtfVBKmpTgGHgV94/B9l22bgXuyQ7uPY9jXbBPhd2zIL29nwbOD7wF9x73JY5UPletzbh2Y1QVIcZFeRfPp8NPAt4P31uzOjV4C/F+0hLKdkNfAENqFi2A57g+4HHFy0w7DHAnZo8HWXA5dg37ouIca3NUl1phCygEuBr2CBnttW7lE541i6UretxRbuPYtd6nwZu+u8HthUtNHi340X/8fsos3BDh/nYYdEO2In0LsCu2PxZYuntLYuYY9hOyV+D7+J0ZXVBElRE1/BewNXYJl4oQ+/Bq09DVxO9e2XsjrESlGTBRzCbnbdgh0GxX6z5dJew67wnUn9jf00QWpqq4C7ARcAdxD+hLUf2hi2ROd87JAuFE2QmmIUcFfsxtiN2Erg2G/OWO0F4AbsatcutSo6s6wmSIonRK4iNd3n2cAx2CrgEWwnxyavAMW0AbgLiz9bgV3Knmj4NWOPbylJdaaQWgG3xXbmOA44FrsydjDtXRULZTN2KXolcA/wF+BBJq+ctSW18e0pqc4UcijgHGynwEOwybIEu/cwTPw1XS9jS28eY/L+zKqivRaxX105jO8WSXWmkFUBp7Ezdll5MbYStnu/YjdgJ+w+xkLssG1e0YawQ7vut9IY9sm+mcl7Ja8weQ/lJezeyjpsw4q12D2Xp7BzqJRlNb5JdaaQVQGltKzGVw8OifSgCSLSgyaISA85ThCFeOZrbuwOlJXjBFFGYb6UUdgCZRTmSxmFAbjW6iijMF/KKAzAVUBlFOZJGYWB+Kw6VUZhfpRRGIjv0mxlFOZDGYUB+RZSGYV5UEZhYGUe8FFGYdqUUdiAMsXsoIzCVCmjsCFlC9pBGYWpUUZhg6oUtYMyClOhjMKGVS1stymjMA5lFLakboE7KKOwTcoobFmIInebMgqbpYzCCFwF3OTxM1ObMgrDGqFaRuFGj58RB1cBj8euWlX5dFJGYXV1MwqfxrZO0gSpyaeAewN3e/zsTE0Zhf5CZBTeVfw/ePysOPgWcAj4LvUy9JRROL1QGYXjWPLX6zfZ0wSpqWwBTwQe9fh3rqaMwrAZhQ8z/c1bTZCaqhRwLnAZyigso6mMwk1Y2tRMewdogtRUp4DD2O7koQa725RR6Pehch3uxaNZTZAUB9lVJJ8+L8W+UU6r350ZKaNw0nLgYuB+j58NMb6tSaozhZAFVEZhc5RRGEkTX8HKKAzXlFEYWZMFVEZhtaaMwoS0VUBlFPZuyihMVIwCKqPQmjIKp0jxhMhVJGUUhqOMQoekOlNIrYDKKAwrtfHtKanOFHIooDIKq8thfLdIqjOFrAo4DWUU9pbV+CbVmUJWBZTSshpfPTgk0oMmiEgPmiAiPeQ4QZRRmC9lFLZAGYX5UkZhC5RRmC9lFAbgWqujjMJ8KaMwAFcBlVGYJ2UUBuKz6lQZhflRRmEgvkuzlVGYD2UUBuRbSGUU5kEZhYGVecBHGYVpU0ZhA8oUs4MyClOljMKGlC1oB2UUpkYZhQ2qUtQOyihMhTIKG1a1sN2mjMI4lFHYkroF7qCMwjYpo7BlIYrcbcoobJYyCiNwFVAZhfGNoIzCaFwFVEZhHMooTIRPAZVR2B5lFCbGt4DKKGyOMgoTVraAyigMQxmFmahSQGUUlqeMwkzVKaAyCqenjMKKUhxkV5GUUTgzZRQGllRnCiELqIzC5iijMJImvoKVURiuKaMwsiYLqIzCak0ZhQlpq4DKKOzdlFGYqBgFVEahNWUUTpHiCZGrSMooDEcZhQ5JdaaQWgGVURhWauPbU1KdKeRQQGUUVpfD+G6RVGcKWRVwGsoo7C2r8U2qM4WsCiilZTW+enBIpAdNEJEeNEFEekhxgrhWwiqjMF+ujMIUrrJtJcUJst7x98oozJcro9A19q1LcYI85fh7ZRTmy5VRuKaVXpSQ4gRZ5fj7Za30QprgGjvX2Au2wrbXYjZlFObJJ6Pw3Gi9y8i+uFd8KqMwP66MwgkyzFGP5Y+4J4kyCvPhk1H4u1idy9FHcRdUGYV58M0o1LllCbOwlaiuoiqjMG2+GYWrSPOCUdJOw+8puMdRRmGKymQUnhqpj9m7Cb8CK6MwLWUyCm+I1Me+sDP2nINPoZVRmIYyGYVPYnt9SQ3HUS40RxmFcZTNKNwIHB2lp33oI5Tbhl8Zhe2pklE4hu1PJgF9ivKbUiujsFlVMgrHgXNidHYQnEW1DG5lFIY1QrWMwlHsaEAadDLwPOUHp4MyCuuom1H4HHBS250eVMPUix9WRqG/EBmFK7E1dtKiOVigTZ2wHGUUTi9URuEEcDWWWyKRvAvbJK3qIHabMgrDZhSuxs5VJAHbY5kVyij012RG4WXYhniSmP1QRuF02swoHG7pd2pFToNcxlHApcAHGnwNZRROuhWrd5kotiz06wTpOhL4KsoobEI3o/Aq/MI7JWHKKAzX6mYUSsKUUVithcwolEwoo7B3ayqjUDKkjEJrbWQUZqXfT9KrUEahbKEJ4qaMwgGmCVKNMgoHhCZIeMooFBEREREREREREREREREREREREREREant/7IKC+5bUhJjAAAAAElFTkSuQmCC;fillColor=#67AB9F;strokeColor=#67AB9F;" vertex="1" parent="1">
          <mxGeometry x="1681" y="230" width="80" height="80" as="geometry" />
        </mxCell>
        <mxCell id="2ZRhY3xHpT4bSsx1_LrB-57" value="&lt;b&gt;Mongo DB&lt;/b&gt;" style="text;html=1;align=center;verticalAlign=middle;resizable=0;points=[];autosize=1;strokeColor=none;fillColor=none;" vertex="1" parent="1">
          <mxGeometry x="1681" y="300" width="80" height="30" as="geometry" />
        </mxCell>
        <mxCell id="2ZRhY3xHpT4bSsx1_LrB-58" value="Video" style="text;html=1;align=center;verticalAlign=middle;whiteSpace=wrap;rounded=0;" vertex="1" parent="1">
          <mxGeometry x="1290" y="100" width="60" height="30" as="geometry" />
        </mxCell>
      </root>
    </mxGraphModel>
  </diagram>
</mxfile>
